<svg viewBox="0 0 899 559" fill="none" xmlns="http://www.w3.org/2000/svg">
<path d="M309.209 387.821C305.879 384.269 301.621 381.721 296.918 380.466C292.214 379.211 287.252 379.299 282.596 380.721C277.884 382.011 273.531 384.366 269.873 387.604C266.215 390.842 263.35 394.878 261.499 399.399C257.833 408.743 257.626 419.09 260.915 428.573C263.842 438.312 270.469 446.516 279.375 451.424C288.363 456.461 299.937 456.913 313.628 452.529C326.96 448.851 338.303 440.063 345.195 428.073C348.276 422.441 350.151 416.23 350.701 409.834C351.251 403.438 350.463 396.997 348.388 390.922C338.167 358.921 280.888 359.851 268.489 320.921C263.098 303.78 271.809 288.16 289.917 282.408C293.104 281.137 296.518 280.534 299.948 280.637C303.378 280.74 306.75 281.547 309.855 283.008C312.96 284.468 315.732 286.552 317.998 289.129C320.264 291.706 321.976 294.721 323.028 297.987C324.104 301.232 324.793 304.592 325.081 307.999L320.193 308.739C320.013 305.679 319.411 302.658 318.404 299.762C317.594 297.054 316.226 294.545 314.39 292.395C312.553 290.246 310.288 288.503 307.739 287.28C305.19 286.056 302.414 285.378 299.589 285.29C296.763 285.201 293.949 285.703 291.329 286.764C276.198 291.582 268.825 305.386 273.017 318.515C284.754 355.556 341.853 353.793 352.964 388.832C355.336 395.614 356.251 402.82 355.649 409.98C355.047 417.14 352.941 424.092 349.469 430.383C345.75 436.914 340.772 442.642 334.822 447.234C328.872 451.827 322.07 455.192 314.809 457.135C299.678 461.953 286.953 461.352 276.976 455.82C267.014 450.157 259.646 440.842 256.43 429.844C252.724 419.091 252.97 407.37 257.124 396.782C259.309 391.67 262.625 387.122 266.823 383.478C271.021 379.834 275.991 377.191 281.359 375.747C286.899 373.99 292.822 373.827 298.45 375.276C304.079 376.724 309.187 379.726 313.191 383.939L309.209 387.821Z" fill="#7E66EC" stroke="white" stroke-width="18.6371" stroke-miterlimit="10"/>
<path d="M421.629 302.954C410.45 306.528 401.461 316.76 395.123 333.849C388.644 352.252 386.45 371.892 388.709 391.271L400.151 507.335L395.022 508.972L376.785 321.033L381.914 319.397L385.587 356.798C389.773 325.142 401.904 304.059 420.529 298.174C441.044 291.628 455.888 301.961 463.469 325.76C469.472 344.411 469.921 364.405 464.761 383.306C459.736 402.669 450.068 414.456 436.167 418.872C420.789 423.834 408.81 413.605 406.128 394.817L411.336 393.706C413 409.315 422.598 418.023 434.804 414.132C447.011 410.241 455.181 399.219 459.796 381.047C464.56 363.663 464.221 345.274 458.82 328.077C451.87 307.032 439.227 297.387 421.629 302.954Z" fill="#7E66EC" stroke="white" stroke-width="18.6371" stroke-miterlimit="10"/>
<path d="M193.672 184.855C193.582 204.809 190.068 224.599 183.282 243.364C177.145 259.293 168.986 268.969 159.344 272.042C145.293 276.534 132.088 268.856 121.541 252.818C112.535 238.405 104.838 223.215 98.5408 207.429C97.6461 204.715 96.6875 203.355 95.9695 201.098L95.309 196.735C100.937 194.978 106.161 192.125 110.681 188.34C115.202 184.556 118.929 179.914 121.648 174.683C124.609 169.434 126.406 163.609 126.917 157.604C127.427 151.599 126.639 145.554 124.605 139.881C118.011 119.051 100.333 112.372 73.7441 120.699C63.4516 123.488 53.82 128.305 45.4148 134.868C37.0096 141.431 30.0003 149.606 24.7983 158.915C19.8667 168.001 16.9335 178.035 16.195 188.346C15.4565 198.658 16.9298 209.008 20.5162 218.703C27.5196 240.815 40.1783 252.34 58.6309 252.772L50.624 167.21L55.7526 165.573L63.9823 252.607C72.372 251.51 80.5906 249.362 88.4449 246.216L89.9127 250.94C87.7928 251.852 84.3063 252.971 79.3274 254.531C74.4216 255.843 69.427 256.797 64.3831 257.385L68.1639 296.92L63.0274 298.505L58.9998 257.34C37.8636 256.938 23.3113 244.624 15.7476 220.232C12.0272 209.904 10.5309 198.906 11.3568 187.959C12.1826 177.012 15.312 166.364 20.5398 156.71C26.0285 146.884 33.4212 138.25 42.2856 131.314C51.15 124.378 61.3082 119.278 72.1664 116.314C101.251 107.072 121.812 115.035 129.34 138.841C133.049 150.517 132.074 163.176 126.62 174.146C121.406 185.693 111.979 194.812 100.265 199.641C105.53 211.926 110.082 221.99 113.922 229.832C117.817 237.558 122.199 245.029 127.039 252.201C136.96 266.237 146.931 271.017 157.856 267.536C166.268 264.864 173.492 255.76 179.264 240.262C185.571 222.655 188.924 204.127 189.189 185.426C190.936 184.893 192.35 185.001 193.672 184.855Z" fill="#7E66EC" stroke="white" stroke-width="18.6371" stroke-miterlimit="10"/>
<path d="M264.254 203.956C264.254 203.956 263.173 199.657 261.144 191.577C258.356 225.01 246.698 244.248 230.083 249.559C213.467 254.87 202.689 246.179 195.923 224.569C191.771 209.131 189.126 193.326 188.026 177.377L185.24 144.412L190.368 142.775L193.4 176.295C194.384 192.251 196.923 208.072 200.981 223.534C206.734 241.642 216.153 248.818 229.027 244.719C238.205 241.77 245.776 232.828 251.17 218.033C256.565 203.238 258.302 183.459 256.566 159.205L253.464 122.739L258.593 121.103L261.257 154.678C262.24 170.634 264.78 186.455 268.838 201.918C274.598 220.078 283.947 227.139 296.884 223.102C305.349 220.423 312.565 211.266 318.285 195.776C324.381 178.266 327.644 159.894 327.95 141.356C329.789 141.077 331.143 141.141 332.465 140.995C332.398 160.951 328.883 180.745 322.075 199.503C315.93 215.38 307.832 225.101 298.137 228.181C282.202 233.013 270.973 225.25 264.254 203.956Z" fill="#7E66EC" stroke="white" stroke-width="18.6371" stroke-miterlimit="10"/>
<path d="M350.975 257.601C348.863 250.831 348.118 243.709 348.785 236.648C349.451 229.588 351.515 222.731 354.857 216.476L359.665 218.758C356.457 224.314 354.459 230.484 353.804 236.866C353.149 243.247 353.85 249.695 355.862 255.786C361.305 272.919 371.252 279.316 385.618 274.776C407.265 267.897 415.008 238.068 408.971 176.885L405.853 145.637C401.557 177.631 389.458 198.925 371.342 204.625C353.227 210.325 338.359 199.833 331.185 178.016C324.447 158.304 325.534 136.758 334.223 117.825C338.11 108.647 343.973 100.439 351.394 93.7861C358.816 87.1333 367.613 82.1991 377.16 79.3353C386.087 76.3379 395.554 75.2898 404.921 76.2617L403.614 81.8359C395.235 80.8384 386.741 81.6659 378.712 84.2616C369.744 86.9337 361.484 91.5738 354.537 97.8434C347.589 104.113 342.129 111.854 338.553 120.503C330.865 138.31 330.066 158.339 336.309 176.703C342.378 195.838 355.354 204.841 370.23 200.116C381.409 196.542 389.718 186.789 395.273 170.572C401.372 151.393 403.792 131.235 402.408 111.158L400.874 94.9925L406.043 93.6187L414.343 176.502C417.031 204.913 417.44 225.012 413.793 243.897C410.147 262.783 401.327 275.193 386.96 279.734C370.006 284.935 357.044 276.736 350.975 257.601Z" fill="white" stroke="white" stroke-width="18.6371" stroke-miterlimit="10"/>
<path d="M676.309 270.099C670.935 286.442 670.874 304.068 676.136 320.448C683.316 343.017 700.057 352.74 722.169 345.737C750.946 336.595 769.524 303.406 770.635 258.184C772.422 257.914 773.828 257.97 775.158 257.876C775.088 279.005 769.981 299.812 760.261 318.572C752.614 333.608 739.397 345.062 723.426 350.493C698.346 358.483 679.364 347.808 671.249 322.263C665.621 304.578 665.813 285.554 671.796 267.986C677.995 249.628 688.762 237.998 704.155 233.141C719.549 228.284 732.072 234.291 736.556 248.29C739.45 258.826 738.882 270.013 734.936 280.202L730.005 278.529C733.752 269.516 734.284 259.488 731.512 250.129C727.814 238.484 718.287 233.797 705.474 237.942C691.547 242.308 681.825 253.027 676.309 270.099Z" fill="#7E66EC" stroke="white" stroke-width="18.6371" stroke-miterlimit="10"/>
<path d="M864.56 286.271C856.189 298.576 844.294 308.091 830.419 313.581C805.51 321.221 784.531 311.263 775.064 283.812C769.046 266.854 768.85 248.393 774.506 231.323C780.097 213.691 790.135 202.531 804.566 197.689C828.118 189.715 843.569 203.299 848.194 230.075L848.842 233.679L775.816 258.425C775.982 266.478 777.361 274.462 779.907 282.111C788.324 306.587 806.578 315.36 828.967 308.856C842.138 304.233 853.469 295.525 861.293 284.013M776.005 255.165L843.459 231.98C838.417 206.729 826.103 197.404 806.519 204.005C787.554 210.438 776.372 231.181 775.802 255.376L776.005 255.165Z" fill="white"/>
<path d="M864.56 286.271C856.189 298.576 844.294 308.091 830.419 313.581C805.51 321.221 784.531 311.263 775.064 283.812C769.046 266.854 768.85 248.393 774.506 231.323C780.097 213.691 790.135 202.531 804.566 197.689C828.118 189.715 843.569 203.299 848.194 230.075L848.842 233.679L775.816 258.425C775.982 266.478 777.361 274.462 779.907 282.111C788.324 306.587 806.578 315.36 828.967 308.856C842.138 304.233 853.469 295.525 861.293 284.013M776.005 255.165L843.459 231.98C838.417 206.729 826.103 197.404 806.519 204.005C787.554 210.438 776.372 231.181 775.802 255.376L776.005 255.165Z" stroke="white" stroke-width="18.6371" stroke-miterlimit="10"/>
<g filter="url(#filter0_i_106_481)">
<path d="M437.706 264.078C435.231 259.14 433.018 254.076 431.074 248.906C429.825 246.152 429.252 243.139 429.406 240.119C429.559 237.099 430.433 234.159 431.955 231.546C433.476 228.932 435.602 226.721 438.153 225.098C440.704 223.474 443.607 222.485 446.619 222.213C454.181 220.944 461.88 220.702 469.507 221.491C486.971 223.553 504.089 227.89 520.428 234.392C521.683 234.918 523.031 235.181 524.391 235.167C525.752 235.153 527.095 234.861 528.338 234.31C547.054 226.71 567.736 225.408 587.257 230.601C606.779 235.794 624.08 247.2 636.546 263.095C646.834 276.029 653.35 291.551 655.378 307.952C655.557 309.442 656.03 310.882 656.77 312.188C657.51 313.494 658.502 314.641 659.688 315.56C674.209 327.107 686.836 340.852 697.111 356.299C699.386 359.96 701.255 363.859 702.685 367.926C704.017 370.782 704.647 373.916 704.523 377.065C704.398 380.215 703.523 383.289 701.97 386.031C700.417 388.774 698.231 391.106 695.594 392.833C692.957 394.559 689.946 395.631 686.811 395.958C675.668 398 664.216 397.635 653.225 394.887C626.915 389.224 601.435 380.229 577.4 368.12C537.403 349.44 500.249 325.2 467.038 296.118C456.01 286.654 446.162 275.897 437.706 264.078ZM521.822 255.439C508.75 263.834 498.283 275.715 491.603 289.741C491.153 290.347 490.839 291.042 490.684 291.78C490.528 292.518 490.534 293.281 490.702 294.016C490.87 294.752 491.195 295.442 491.655 296.04C492.115 296.637 492.699 297.128 493.367 297.478C496.904 299.94 500.216 302.852 503.864 305.406C507.511 307.961 508.164 308.168 510.129 303.653C515.392 289.302 524.523 276.688 536.51 267.204C548.498 257.721 562.875 251.738 578.051 249.918C578.832 249.91 579.607 249.785 580.35 249.547C581.154 248.995 581.886 248.345 582.527 247.611C581.924 246.829 581.199 246.149 580.381 245.596C579.124 245.168 577.822 244.887 576.5 244.76C557.584 241.667 538.185 245.456 521.822 255.439V255.439ZM510.173 243.585C509.171 243.036 508.123 242.576 507.041 242.212C497.915 240.154 488.844 237.579 479.555 236.436C473.134 235.909 466.67 236.363 460.385 237.782C454.851 238.795 452.957 242.506 453.818 248.176C454.099 250.14 454.61 252.065 455.34 253.91C459.101 262.241 464.363 269.809 470.863 276.235C472.825 278.471 474.997 280.546 477.656 283.251C484.723 267.366 495.993 253.712 510.25 243.762L510.173 243.585ZM639.531 374.012C650.074 377.213 661.173 378.16 672.106 376.791C681.798 375.156 684.714 370.085 681.036 360.864C675.579 348.883 667.547 338.253 657.514 329.73C657.514 329.73 656.923 329.988 656.075 329.656C654.34 345.63 648.684 360.929 639.609 374.189L639.531 374.012Z" fill="#FFC700"/>
<path d="M608.221 400.986C595.606 416.203 548.24 417.709 521.435 404.323C485.539 386.542 469.438 349.704 470.65 324.001C476.48 330.102 484.902 331.835 486.983 341.262C491.029 359.155 501.372 374.998 516.126 385.901C516.97 386.721 517.951 387.387 519.025 387.868C520.193 388.184 521.397 388.343 522.607 388.341C522.6 387.118 522.379 385.906 521.955 384.759C518.313 378.195 514.198 371.837 510.851 365.143C508.899 360.773 507.649 356.122 507.148 351.363C539.172 371.102 573.019 387.72 608.221 400.986V400.986Z" fill="#FFC700"/>
</g>
<defs>
<filter id="filter0_i_106_481" x="429.381" y="221.038" width="275.157" height="211.057" filterUnits="userSpaceOnUse" color-interpolation-filters="sRGB">
<feFlood flood-opacity="0" result="BackgroundImageFix"/>
<feBlend mode="normal" in="SourceGraphic" in2="BackgroundImageFix" result="shape"/>
<feColorMatrix in="SourceAlpha" type="matrix" values="0 0 0 0 0 0 0 0 0 0 0 0 0 0 0 0 0 0 127 0" result="hardAlpha"/>
<feOffset dy="18.6371"/>
<feGaussianBlur stdDeviation="9.31856"/>
<feComposite in2="hardAlpha" operator="arithmetic" k2="-1" k3="1"/>
<feColorMatrix type="matrix" values="0 0 0 0 0.420833 0 0 0 0 0.3535 0 0 0 0 0 0 0 0 0.25 0"/>
<feBlend mode="normal" in2="shape" result="effect1_innerShadow_106_481"/>
</filter>
</defs>
</svg>
