<svg width="268" height="268" viewBox="0 0 268 268" fill="none" xmlns="http://www.w3.org/2000/svg">
<path d="M122.899 205.365C123.235 205.365 123.559 205.422 123.87 205.534C124.184 205.647 124.463 205.827 124.708 206.075C124.955 206.322 125.15 206.65 125.293 207.059C125.438 207.466 125.511 207.966 125.513 208.558C125.513 209.114 125.45 209.61 125.325 210.047C125.201 210.482 125.023 210.852 124.791 211.156C124.559 211.461 124.278 211.693 123.95 211.853C123.622 212.011 123.256 212.089 122.851 212.089C122.414 212.089 122.028 212.005 121.694 211.837C121.359 211.667 121.09 211.435 120.885 211.143C120.683 210.849 120.56 210.519 120.518 210.153H121.882C121.936 210.391 122.048 210.577 122.218 210.709C122.388 210.839 122.599 210.904 122.851 210.904C123.277 210.904 123.601 210.718 123.822 210.348C124.044 209.975 124.156 209.464 124.158 208.817H124.113C124.015 209.009 123.883 209.174 123.717 209.312C123.551 209.449 123.36 209.554 123.145 209.629C122.932 209.703 122.705 209.74 122.464 209.74C122.078 209.74 121.734 209.65 121.432 209.469C121.129 209.288 120.891 209.038 120.716 208.721C120.541 208.403 120.454 208.041 120.454 207.634C120.452 207.195 120.553 206.804 120.757 206.461C120.962 206.118 121.248 205.85 121.614 205.656C121.983 205.46 122.411 205.363 122.899 205.365ZM122.908 206.452C122.693 206.452 122.501 206.503 122.333 206.605C122.167 206.707 122.035 206.845 121.937 207.017C121.841 207.19 121.794 207.383 121.796 207.596C121.796 207.811 121.843 208.005 121.937 208.178C122.033 208.348 122.163 208.484 122.327 208.587C122.493 208.687 122.683 208.737 122.896 208.737C123.055 208.737 123.203 208.707 123.34 208.647C123.476 208.588 123.594 208.506 123.695 208.401C123.797 208.295 123.877 208.172 123.934 208.034C123.992 207.895 124.021 207.748 124.021 207.593C124.018 207.386 123.969 207.196 123.874 207.024C123.778 206.851 123.646 206.713 123.477 206.608C123.309 206.504 123.119 206.452 122.908 206.452ZM129.038 212.144C128.489 212.142 128.016 212.006 127.619 211.738C127.225 211.469 126.922 211.081 126.708 210.571C126.498 210.062 126.393 209.45 126.395 208.734C126.395 208.02 126.501 207.412 126.712 206.909C126.925 206.406 127.228 206.023 127.623 205.761C128.019 205.497 128.491 205.365 129.038 205.365C129.586 205.365 130.057 205.497 130.451 205.761C130.847 206.026 131.152 206.409 131.365 206.912C131.578 207.413 131.684 208.02 131.681 208.734C131.681 209.452 131.575 210.065 131.362 210.575C131.151 211.084 130.848 211.473 130.454 211.741C130.06 212.01 129.588 212.144 129.038 212.144ZM129.038 210.996C129.413 210.996 129.713 210.808 129.936 210.431C130.16 210.054 130.271 209.488 130.269 208.734C130.269 208.237 130.218 207.824 130.115 207.494C130.015 207.163 129.873 206.915 129.687 206.749C129.504 206.583 129.288 206.5 129.038 206.5C128.665 206.5 128.367 206.686 128.143 207.059C127.92 207.432 127.807 207.99 127.805 208.734C127.805 209.237 127.855 209.656 127.955 209.993C128.057 210.327 128.201 210.579 128.386 210.747C128.572 210.913 128.789 210.996 129.038 210.996ZM136.982 212.096C136.479 212.096 136.047 211.989 135.684 211.776C135.324 211.561 135.047 211.263 134.854 210.881C134.662 210.5 134.566 210.061 134.566 209.565C134.566 209.062 134.663 208.621 134.857 208.241C135.053 207.86 135.331 207.563 135.691 207.35C136.051 207.135 136.479 207.027 136.976 207.027C137.404 207.027 137.779 207.105 138.101 207.26C138.422 207.416 138.677 207.634 138.865 207.915C139.052 208.197 139.155 208.527 139.175 208.906H137.89C137.854 208.661 137.758 208.464 137.602 208.315C137.449 208.164 137.247 208.088 136.998 208.088C136.787 208.088 136.603 208.146 136.445 208.261C136.29 208.374 136.168 208.539 136.081 208.756C135.993 208.973 135.95 209.237 135.95 209.545C135.95 209.859 135.992 210.125 136.078 210.344C136.165 210.564 136.287 210.731 136.445 210.846C136.603 210.961 136.787 211.019 136.998 211.019C137.154 211.019 137.293 210.987 137.417 210.923C137.542 210.859 137.646 210.766 137.727 210.645C137.81 210.521 137.864 210.373 137.89 210.201H139.175C139.153 210.576 139.051 210.906 138.868 211.191C138.687 211.475 138.436 211.696 138.117 211.856C137.797 212.016 137.419 212.096 136.982 212.096ZM140.046 212V207.091H141.344V207.957H141.401C141.504 207.669 141.674 207.442 141.913 207.276C142.151 207.11 142.437 207.027 142.769 207.027C143.106 207.027 143.392 207.111 143.629 207.279C143.866 207.446 144.023 207.672 144.102 207.957H144.153C144.253 207.676 144.434 207.451 144.696 207.283C144.961 207.112 145.273 207.027 145.633 207.027C146.091 207.027 146.463 207.173 146.748 207.465C147.036 207.755 147.18 208.166 147.18 208.699V212H145.821V208.967C145.821 208.694 145.749 208.49 145.604 208.353C145.459 208.217 145.278 208.149 145.061 208.149C144.814 208.149 144.621 208.228 144.482 208.385C144.344 208.541 144.275 208.746 144.275 209.002V212H142.955V208.938C142.955 208.697 142.885 208.506 142.747 208.363C142.611 208.22 142.43 208.149 142.207 208.149C142.055 208.149 141.919 208.187 141.798 208.264C141.678 208.338 141.584 208.444 141.513 208.58C141.443 208.714 141.408 208.872 141.408 209.053V212H140.046Z" fill="white"/>
<path d="M247.089 144.957C247.087 145.294 247.031 145.619 246.92 145.932C246.809 146.243 246.629 146.522 246.38 146.77C246.131 147.017 245.8 147.213 245.389 147.358C244.978 147.5 244.473 147.572 243.874 147.572C243.325 147.57 242.833 147.507 242.401 147.383C241.966 147.257 241.598 147.078 241.295 146.846C240.993 146.612 240.762 146.332 240.605 146.006C240.445 145.68 240.365 145.314 240.365 144.909C240.365 144.473 240.45 144.087 240.621 143.752C240.789 143.418 241.018 143.15 241.308 142.947C241.598 142.743 241.923 142.619 242.283 142.576L242.283 143.941C242.055 143.994 241.876 144.106 241.746 144.277C241.616 144.447 241.551 144.658 241.551 144.909C241.551 145.336 241.736 145.659 242.107 145.881C242.478 146.1 242.982 146.212 243.619 146.217L243.619 146.172C243.425 146.074 243.26 145.942 243.123 145.776C242.985 145.607 242.879 145.417 242.807 145.203C242.732 144.988 242.695 144.761 242.695 144.523C242.695 144.135 242.787 143.79 242.97 143.487C243.151 143.185 243.4 142.946 243.718 142.771C244.035 142.597 244.398 142.509 244.808 142.509C245.251 142.509 245.645 142.613 245.99 142.819C246.335 143.024 246.606 143.31 246.802 143.679C246.996 144.045 247.092 144.472 247.089 144.957ZM246.003 144.964C246.003 144.751 245.952 144.56 245.849 144.392C245.747 144.223 245.609 144.091 245.434 143.995C245.259 143.9 245.063 143.852 244.846 143.852C244.629 143.852 244.434 143.9 244.261 143.995C244.088 144.089 243.951 144.219 243.849 144.385C243.746 144.551 243.695 144.741 243.695 144.954C243.695 145.114 243.725 145.262 243.785 145.398C243.844 145.533 243.928 145.651 244.034 145.753C244.141 145.853 244.264 145.932 244.405 145.99C244.543 146.047 244.691 146.076 244.849 146.076C245.06 146.076 245.253 146.028 245.428 145.932C245.602 145.834 245.742 145.702 245.846 145.536C245.951 145.368 246.003 145.177 246.003 144.964ZM247.144 138.962C247.142 139.511 247.006 139.984 246.738 140.381C246.469 140.775 246.081 141.078 245.571 141.292C245.062 141.502 244.45 141.607 243.734 141.605C243.02 141.605 242.412 141.499 241.909 141.288C241.406 141.075 241.023 140.772 240.761 140.377C240.497 139.981 240.365 139.509 240.365 138.962C240.365 138.414 240.497 137.943 240.761 137.549C241.026 137.153 241.409 136.848 241.912 136.635C242.413 136.422 243.02 136.316 243.734 136.319C244.452 136.319 245.065 136.425 245.575 136.638C246.084 136.849 246.473 137.152 246.741 137.546C247.01 137.94 247.144 138.412 247.144 138.962ZM245.996 138.962C245.996 138.587 245.808 138.287 245.431 138.064C245.054 137.84 244.488 137.729 243.734 137.731C243.237 137.731 242.824 137.782 242.494 137.885C242.163 137.985 241.915 138.127 241.749 138.313C241.583 138.496 241.5 138.712 241.5 138.962C241.5 139.335 241.686 139.633 242.059 139.857C242.432 140.08 242.99 140.193 243.734 140.195C244.237 140.195 244.656 140.145 244.993 140.045C245.327 139.943 245.579 139.799 245.747 139.614C245.913 139.428 245.996 139.211 245.996 138.962ZM247.096 131.018C247.096 131.521 246.989 131.953 246.776 132.316C246.561 132.676 246.263 132.953 245.881 133.146C245.5 133.338 245.061 133.434 244.565 133.434C244.062 133.434 243.621 133.337 243.241 133.143C242.86 132.947 242.563 132.669 242.35 132.309C242.135 131.949 242.027 131.521 242.027 131.024C242.027 130.596 242.105 130.221 242.26 129.899C242.416 129.578 242.634 129.323 242.915 129.135C243.197 128.948 243.527 128.845 243.906 128.825L243.906 130.11C243.661 130.146 243.464 130.242 243.315 130.398C243.164 130.551 243.088 130.753 243.088 131.002C243.088 131.213 243.146 131.397 243.261 131.555C243.374 131.71 243.539 131.832 243.756 131.919C243.973 132.007 244.237 132.05 244.545 132.05C244.859 132.05 245.125 132.008 245.344 131.922C245.564 131.835 245.731 131.713 245.846 131.555C245.961 131.397 246.019 131.213 246.019 131.002C246.019 130.846 245.987 130.707 245.923 130.583C245.859 130.458 245.766 130.354 245.645 130.273C245.521 130.19 245.373 130.136 245.201 130.11L245.201 128.825C245.576 128.847 245.906 128.949 246.191 129.132C246.475 129.313 246.696 129.564 246.856 129.883C247.016 130.203 247.096 130.581 247.096 131.018ZM247 127.954L242.091 127.954L242.091 126.656L242.957 126.656L242.957 126.599C242.669 126.496 242.442 126.326 242.276 126.087C242.11 125.849 242.027 125.563 242.027 125.231C242.027 124.894 242.111 124.608 242.279 124.371C242.446 124.134 242.672 123.977 242.957 123.898L242.957 123.847C242.676 123.747 242.451 123.566 242.283 123.304C242.112 123.039 242.027 122.727 242.027 122.367C242.027 121.909 242.173 121.537 242.465 121.252C242.755 120.964 243.166 120.82 243.699 120.82L247 120.82L247 122.179L243.967 122.179C243.694 122.179 243.49 122.251 243.353 122.396C243.217 122.541 243.149 122.722 243.149 122.939C243.149 123.186 243.228 123.379 243.385 123.518C243.541 123.656 243.746 123.725 244.002 123.725L247 123.725L247 125.045L243.938 125.045C243.697 125.045 243.506 125.115 243.363 125.253C243.22 125.389 243.149 125.57 243.149 125.793C243.149 125.945 243.187 126.081 243.264 126.202C243.338 126.322 243.444 126.416 243.58 126.487C243.714 126.557 243.872 126.592 244.053 126.592L247 126.592L247 127.954Z" fill="white"/>
<mask id="mask0_8_2" style="mask-type:luminance" maskUnits="userSpaceOnUse" x="26" y="71" width="206" height="126">
<rect x="26" y="71" width="206" height="126" fill="white"/>
</mask>
<g mask="url(#mask0_8_2)">
<path d="M36.0777 208L0 172.869L13.1836 162.417L36.0777 184.725L65.5282 156.021L95.0141 184.725L124.5 156.021L153.95 184.725L183.436 156.021L212.922 184.725L235.816 162.417L249 172.869L212.922 208L183.436 179.296L153.95 208L124.5 179.296L95.0141 208L65.5282 179.296L36.0777 208ZM36.0777 155.99L0 120.858L13.1836 110.438L36.0777 132.714L65.5282 104.01L95.0141 132.714L124.5 104.01L153.95 132.714L183.436 104.01L212.922 132.714L235.816 110.438L249 120.858L212.922 155.99L183.436 127.286L153.95 155.99L124.5 127.286L95.0141 155.99L65.5282 127.286L36.0777 155.99ZM36.0777 103.979L0 68.8792L13.1836 58.4272L36.0777 80.704L65.5282 52L95.0141 80.704L124.5 52L153.95 80.704L183.436 52L212.922 80.704L235.816 58.4272L249 68.8792L212.922 103.979L183.436 75.2752L153.95 103.979L124.5 75.2752L95.0141 103.979L65.5282 75.2752L36.0777 103.979Z" fill="#9D9D9D"/>
</g>
</svg>
