<svg width="268" height="268" viewBox="0 0 268 268" fill="none" xmlns="http://www.w3.org/2000/svg">
<path d="M123.043 215.089C122.706 215.087 122.381 215.031 122.068 214.92C121.757 214.809 121.478 214.629 121.23 214.38C120.983 214.131 120.787 213.8 120.642 213.389C120.5 212.978 120.428 212.473 120.428 211.874C120.43 211.325 120.493 210.833 120.617 210.401C120.743 209.966 120.922 209.598 121.154 209.295C121.388 208.993 121.668 208.762 121.994 208.605C122.32 208.445 122.686 208.365 123.091 208.365C123.527 208.365 123.913 208.45 124.248 208.621C124.582 208.789 124.85 209.018 125.053 209.308C125.257 209.598 125.381 209.923 125.424 210.283H124.059C124.006 210.055 123.894 209.876 123.723 209.746C123.553 209.616 123.342 209.551 123.091 209.551C122.664 209.551 122.341 209.736 122.119 210.107C121.9 210.478 121.788 210.982 121.783 211.619H121.828C121.926 211.425 122.058 211.26 122.224 211.123C122.393 210.985 122.583 210.879 122.797 210.807C123.012 210.732 123.239 210.695 123.477 210.695C123.865 210.695 124.21 210.787 124.513 210.97C124.815 211.151 125.054 211.4 125.229 211.718C125.403 212.035 125.491 212.398 125.491 212.808C125.491 213.251 125.387 213.645 125.181 213.99C124.976 214.335 124.69 214.606 124.321 214.802C123.955 214.996 123.528 215.092 123.043 215.089ZM123.036 214.003C123.249 214.003 123.44 213.952 123.608 213.849C123.777 213.747 123.909 213.609 124.005 213.434C124.1 213.259 124.148 213.063 124.148 212.846C124.148 212.629 124.1 212.434 124.005 212.261C123.911 212.088 123.781 211.951 123.615 211.849C123.449 211.746 123.259 211.695 123.046 211.695C122.886 211.695 122.738 211.725 122.602 211.785C122.467 211.844 122.349 211.928 122.247 212.034C122.147 212.141 122.068 212.264 122.01 212.405C121.953 212.543 121.924 212.691 121.924 212.849C121.924 213.06 121.972 213.253 122.068 213.428C122.166 213.602 122.298 213.742 122.464 213.846C122.632 213.951 122.823 214.003 123.036 214.003ZM129.038 215.144C128.489 215.142 128.016 215.006 127.619 214.738C127.225 214.469 126.922 214.081 126.708 213.571C126.498 213.062 126.393 212.45 126.395 211.734C126.395 211.02 126.501 210.412 126.712 209.909C126.925 209.406 127.228 209.023 127.623 208.761C128.019 208.497 128.491 208.365 129.038 208.365C129.586 208.365 130.057 208.497 130.451 208.761C130.847 209.026 131.152 209.409 131.365 209.912C131.578 210.413 131.684 211.02 131.681 211.734C131.681 212.452 131.575 213.065 131.362 213.575C131.151 214.084 130.848 214.473 130.454 214.741C130.06 215.01 129.588 215.144 129.038 215.144ZM129.038 213.996C129.413 213.996 129.713 213.808 129.936 213.431C130.16 213.054 130.271 212.488 130.269 211.734C130.269 211.237 130.218 210.824 130.115 210.494C130.015 210.163 129.873 209.915 129.687 209.749C129.504 209.583 129.288 209.5 129.038 209.5C128.665 209.5 128.367 209.686 128.143 210.059C127.92 210.432 127.807 210.99 127.805 211.734C127.805 212.237 127.855 212.656 127.955 212.993C128.057 213.327 128.201 213.579 128.386 213.747C128.572 213.913 128.789 213.996 129.038 213.996ZM136.982 215.096C136.479 215.096 136.047 214.989 135.684 214.776C135.324 214.561 135.047 214.263 134.854 213.881C134.662 213.5 134.566 213.061 134.566 212.565C134.566 212.062 134.663 211.621 134.857 211.241C135.053 210.86 135.331 210.563 135.691 210.35C136.051 210.135 136.479 210.027 136.976 210.027C137.404 210.027 137.779 210.105 138.101 210.26C138.422 210.416 138.677 210.634 138.865 210.915C139.052 211.197 139.155 211.527 139.175 211.906H137.89C137.854 211.661 137.758 211.464 137.602 211.315C137.449 211.164 137.247 211.088 136.998 211.088C136.787 211.088 136.603 211.146 136.445 211.261C136.29 211.374 136.168 211.539 136.081 211.756C135.993 211.973 135.95 212.237 135.95 212.545C135.95 212.859 135.992 213.125 136.078 213.344C136.165 213.564 136.287 213.731 136.445 213.846C136.603 213.961 136.787 214.019 136.998 214.019C137.154 214.019 137.293 213.987 137.417 213.923C137.542 213.859 137.646 213.766 137.727 213.645C137.81 213.521 137.864 213.373 137.89 213.201H139.175C139.153 213.576 139.051 213.906 138.868 214.191C138.687 214.475 138.436 214.696 138.117 214.856C137.797 215.016 137.419 215.096 136.982 215.096ZM140.046 215V210.091H141.344V210.957H141.401C141.504 210.669 141.674 210.442 141.913 210.276C142.151 210.11 142.437 210.027 142.769 210.027C143.106 210.027 143.392 210.111 143.629 210.279C143.866 210.446 144.023 210.672 144.102 210.957H144.153C144.253 210.676 144.434 210.451 144.696 210.283C144.961 210.112 145.273 210.027 145.633 210.027C146.091 210.027 146.463 210.173 146.748 210.465C147.036 210.755 147.18 211.166 147.18 211.699V215H145.821V211.967C145.821 211.694 145.749 211.49 145.604 211.353C145.459 211.217 145.278 211.149 145.061 211.149C144.814 211.149 144.621 211.228 144.482 211.385C144.344 211.541 144.275 211.746 144.275 212.002V215H142.955V211.938C142.955 211.697 142.885 211.506 142.747 211.363C142.611 211.22 142.43 211.149 142.207 211.149C142.055 211.149 141.919 211.187 141.798 211.264C141.678 211.338 141.584 211.444 141.513 211.58C141.443 211.714 141.408 211.872 141.408 212.053V215H140.046Z" fill="white"/>
<path d="M215.089 144.957C215.087 145.294 215.031 145.619 214.92 145.932C214.809 146.243 214.629 146.522 214.38 146.77C214.131 147.017 213.8 147.213 213.389 147.358C212.978 147.5 212.473 147.572 211.874 147.572C211.325 147.57 210.833 147.507 210.401 147.383C209.966 147.257 209.598 147.078 209.295 146.846C208.993 146.612 208.762 146.332 208.605 146.006C208.445 145.68 208.365 145.314 208.365 144.909C208.365 144.473 208.45 144.087 208.621 143.752C208.789 143.418 209.018 143.15 209.308 142.947C209.598 142.743 209.923 142.619 210.283 142.576L210.283 143.941C210.055 143.994 209.876 144.106 209.746 144.277C209.616 144.447 209.551 144.658 209.551 144.909C209.551 145.336 209.736 145.659 210.107 145.881C210.478 146.1 210.982 146.212 211.619 146.217L211.619 146.172C211.425 146.074 211.26 145.942 211.123 145.776C210.985 145.607 210.879 145.417 210.807 145.203C210.732 144.988 210.695 144.761 210.695 144.523C210.695 144.135 210.787 143.79 210.97 143.487C211.151 143.185 211.4 142.946 211.718 142.771C212.035 142.597 212.398 142.509 212.808 142.509C213.251 142.509 213.645 142.613 213.99 142.819C214.335 143.024 214.606 143.31 214.802 143.679C214.996 144.045 215.092 144.472 215.089 144.957ZM214.003 144.964C214.003 144.751 213.952 144.56 213.849 144.392C213.747 144.223 213.609 144.091 213.434 143.995C213.259 143.9 213.063 143.852 212.846 143.852C212.629 143.852 212.434 143.9 212.261 143.995C212.088 144.089 211.951 144.219 211.849 144.385C211.746 144.551 211.695 144.741 211.695 144.954C211.695 145.114 211.725 145.262 211.785 145.398C211.844 145.533 211.928 145.651 212.034 145.753C212.141 145.853 212.264 145.932 212.405 145.99C212.543 146.047 212.691 146.076 212.849 146.076C213.06 146.076 213.253 146.028 213.428 145.932C213.602 145.834 213.742 145.702 213.846 145.536C213.951 145.368 214.003 145.177 214.003 144.964ZM215.144 138.962C215.142 139.511 215.006 139.984 214.738 140.381C214.469 140.775 214.081 141.078 213.571 141.292C213.062 141.502 212.45 141.607 211.734 141.605C211.02 141.605 210.412 141.499 209.909 141.288C209.406 141.075 209.023 140.772 208.761 140.377C208.497 139.981 208.365 139.509 208.365 138.962C208.365 138.414 208.497 137.943 208.761 137.549C209.026 137.153 209.409 136.848 209.912 136.635C210.413 136.422 211.02 136.316 211.734 136.319C212.452 136.319 213.065 136.425 213.575 136.638C214.084 136.849 214.473 137.152 214.741 137.546C215.01 137.94 215.144 138.412 215.144 138.962ZM213.996 138.962C213.996 138.587 213.808 138.287 213.431 138.064C213.054 137.84 212.488 137.729 211.734 137.731C211.237 137.731 210.824 137.782 210.494 137.885C210.163 137.985 209.915 138.127 209.749 138.313C209.583 138.496 209.5 138.712 209.5 138.962C209.5 139.335 209.686 139.633 210.059 139.857C210.432 140.08 210.99 140.193 211.734 140.195C212.237 140.195 212.656 140.145 212.993 140.045C213.327 139.943 213.579 139.799 213.747 139.614C213.913 139.428 213.996 139.211 213.996 138.962ZM215.096 131.018C215.096 131.521 214.989 131.953 214.776 132.316C214.561 132.676 214.263 132.953 213.881 133.146C213.5 133.338 213.061 133.434 212.565 133.434C212.062 133.434 211.621 133.337 211.241 133.143C210.86 132.947 210.563 132.669 210.35 132.309C210.135 131.949 210.027 131.521 210.027 131.024C210.027 130.596 210.105 130.221 210.26 129.899C210.416 129.578 210.634 129.323 210.915 129.135C211.197 128.948 211.527 128.845 211.906 128.825L211.906 130.11C211.661 130.146 211.464 130.242 211.315 130.398C211.164 130.551 211.088 130.753 211.088 131.002C211.088 131.213 211.146 131.397 211.261 131.555C211.374 131.71 211.539 131.832 211.756 131.919C211.973 132.007 212.237 132.05 212.545 132.05C212.859 132.05 213.125 132.008 213.344 131.922C213.564 131.835 213.731 131.713 213.846 131.555C213.961 131.397 214.019 131.213 214.019 131.002C214.019 130.846 213.987 130.707 213.923 130.583C213.859 130.458 213.766 130.354 213.645 130.273C213.521 130.19 213.373 130.136 213.201 130.11L213.201 128.825C213.576 128.847 213.906 128.949 214.191 129.132C214.475 129.313 214.696 129.564 214.856 129.883C215.016 130.203 215.096 130.581 215.096 131.018ZM215 127.954L210.091 127.954L210.091 126.656L210.957 126.656L210.957 126.599C210.669 126.496 210.442 126.326 210.276 126.087C210.11 125.849 210.027 125.563 210.027 125.231C210.027 124.894 210.111 124.608 210.279 124.371C210.446 124.134 210.672 123.977 210.957 123.898L210.957 123.847C210.676 123.747 210.451 123.566 210.283 123.304C210.112 123.039 210.027 122.727 210.027 122.367C210.027 121.909 210.173 121.537 210.465 121.252C210.755 120.964 211.166 120.82 211.699 120.82L215 120.82L215 122.179L211.967 122.179C211.694 122.179 211.49 122.251 211.353 122.396C211.217 122.541 211.149 122.722 211.149 122.939C211.149 123.186 211.228 123.379 211.385 123.518C211.541 123.656 211.746 123.725 212.002 123.725L215 123.725L215 125.045L211.938 125.045C211.697 125.045 211.506 125.115 211.363 125.253C211.22 125.389 211.149 125.57 211.149 125.793C211.149 125.945 211.187 126.081 211.264 126.202C211.338 126.322 211.444 126.416 211.58 126.487C211.714 126.557 211.872 126.592 212.053 126.592L215 126.592L215 127.954Z" fill="white"/>
<mask id="mask0_8_4" style="mask-type:luminance" maskUnits="userSpaceOnUse" x="70" y="71" width="128" height="126">
<rect x="70" y="71" width="128" height="126" fill="white"/>
</mask>
<g mask="url(#mask0_8_4)">
<path d="M88.0777 213.5L52 178.369L65.1836 167.917L88.0777 190.225L117.528 161.521L147.014 190.225L176.5 161.521L205.95 190.225L235.436 161.521L264.922 190.225L287.816 167.917L301 178.369L264.922 213.5L235.436 184.796L205.95 213.5L176.5 184.796L147.014 213.5L117.528 184.796L88.0777 213.5ZM88.0777 161.49L52 126.358L65.1836 115.938L88.0777 138.214L117.528 109.51L147.014 138.214L176.5 109.51L205.95 138.214L235.436 109.51L264.922 138.214L287.816 115.938L301 126.358L264.922 161.49L235.436 132.786L205.95 161.49L176.5 132.786L147.014 161.49L117.528 132.786L88.0777 161.49ZM88.0777 109.479L52 74.3792L65.1836 63.9272L88.0777 86.204L117.528 57.5L147.014 86.204L176.5 57.5L205.95 86.204L235.436 57.5L264.922 86.204L287.816 63.9272L301 74.3792L264.922 109.479L235.436 80.7752L205.95 109.479L176.5 80.7752L147.014 109.479L117.528 80.7752L88.0777 109.479Z" fill="#9D9D9D"/>
</g>
</svg>
