<svg width="268" height="268" viewBox="0 0 268 268" fill="none" xmlns="http://www.w3.org/2000/svg">
<path d="M121.043 183.089C120.706 183.087 120.381 183.031 120.068 182.92C119.757 182.809 119.478 182.629 119.23 182.38C118.983 182.131 118.787 181.8 118.642 181.389C118.5 180.978 118.428 180.473 118.428 179.874C118.43 179.325 118.493 178.833 118.617 178.401C118.743 177.966 118.922 177.598 119.154 177.295C119.388 176.993 119.668 176.762 119.994 176.605C120.32 176.445 120.686 176.365 121.091 176.365C121.527 176.365 121.913 176.45 122.248 176.621C122.582 176.789 122.85 177.018 123.053 177.308C123.257 177.598 123.381 177.923 123.424 178.283H122.059C122.006 178.055 121.894 177.876 121.723 177.746C121.553 177.616 121.342 177.551 121.091 177.551C120.664 177.551 120.341 177.736 120.119 178.107C119.9 178.478 119.788 178.982 119.783 179.619H119.828C119.926 179.425 120.058 179.26 120.224 179.123C120.393 178.985 120.583 178.879 120.797 178.807C121.012 178.732 121.239 178.695 121.477 178.695C121.865 178.695 122.21 178.787 122.513 178.97C122.815 179.151 123.054 179.4 123.229 179.718C123.403 180.035 123.491 180.398 123.491 180.808C123.491 181.251 123.387 181.645 123.181 181.99C122.976 182.335 122.69 182.606 122.321 182.802C121.955 182.996 121.528 183.092 121.043 183.089ZM121.036 182.003C121.249 182.003 121.44 181.952 121.608 181.849C121.777 181.747 121.909 181.609 122.005 181.434C122.1 181.259 122.148 181.063 122.148 180.846C122.148 180.629 122.1 180.434 122.005 180.261C121.911 180.088 121.781 179.951 121.615 179.849C121.449 179.746 121.259 179.695 121.046 179.695C120.886 179.695 120.738 179.725 120.602 179.785C120.467 179.844 120.349 179.928 120.247 180.034C120.147 180.141 120.068 180.264 120.01 180.405C119.953 180.543 119.924 180.691 119.924 180.849C119.924 181.06 119.972 181.253 120.068 181.428C120.166 181.602 120.298 181.742 120.464 181.846C120.632 181.951 120.823 182.003 121.036 182.003ZM127.038 183.144C126.489 183.142 126.016 183.006 125.619 182.738C125.225 182.469 124.922 182.081 124.708 181.571C124.498 181.062 124.393 180.45 124.395 179.734C124.395 179.02 124.501 178.412 124.712 177.909C124.925 177.406 125.228 177.023 125.623 176.761C126.019 176.497 126.491 176.365 127.038 176.365C127.586 176.365 128.057 176.497 128.451 176.761C128.847 177.026 129.152 177.409 129.365 177.912C129.578 178.413 129.684 179.02 129.681 179.734C129.681 180.452 129.575 181.065 129.362 181.575C129.151 182.084 128.848 182.473 128.454 182.741C128.06 183.01 127.588 183.144 127.038 183.144ZM127.038 181.996C127.413 181.996 127.713 181.808 127.936 181.431C128.16 181.054 128.271 180.488 128.269 179.734C128.269 179.237 128.218 178.824 128.115 178.494C128.015 178.163 127.873 177.915 127.687 177.749C127.504 177.583 127.288 177.5 127.038 177.5C126.665 177.5 126.367 177.686 126.143 178.059C125.92 178.432 125.807 178.99 125.805 179.734C125.805 180.237 125.855 180.656 125.955 180.993C126.057 181.327 126.201 181.579 126.386 181.747C126.572 181.913 126.789 181.996 127.038 181.996ZM134.982 183.096C134.479 183.096 134.047 182.989 133.684 182.776C133.324 182.561 133.047 182.263 132.854 181.881C132.662 181.5 132.566 181.061 132.566 180.565C132.566 180.062 132.663 179.621 132.857 179.241C133.053 178.86 133.331 178.563 133.691 178.35C134.051 178.135 134.479 178.027 134.976 178.027C135.404 178.027 135.779 178.105 136.101 178.26C136.422 178.416 136.677 178.634 136.865 178.915C137.052 179.197 137.155 179.527 137.175 179.906H135.89C135.854 179.661 135.758 179.464 135.602 179.315C135.449 179.164 135.247 179.088 134.998 179.088C134.787 179.088 134.603 179.146 134.445 179.261C134.29 179.374 134.168 179.539 134.081 179.756C133.993 179.973 133.95 180.237 133.95 180.545C133.95 180.859 133.992 181.125 134.078 181.344C134.165 181.564 134.287 181.731 134.445 181.846C134.603 181.961 134.787 182.019 134.998 182.019C135.154 182.019 135.293 181.987 135.417 181.923C135.542 181.859 135.646 181.766 135.727 181.645C135.81 181.521 135.864 181.373 135.89 181.201H137.175C137.153 181.576 137.051 181.906 136.868 182.191C136.687 182.475 136.436 182.696 136.117 182.856C135.797 183.016 135.419 183.096 134.982 183.096ZM138.046 183V178.091H139.344V178.957H139.401C139.504 178.669 139.674 178.442 139.913 178.276C140.151 178.11 140.437 178.027 140.769 178.027C141.106 178.027 141.392 178.111 141.629 178.279C141.866 178.446 142.023 178.672 142.102 178.957H142.153C142.253 178.676 142.434 178.451 142.696 178.283C142.961 178.112 143.273 178.027 143.633 178.027C144.091 178.027 144.463 178.173 144.748 178.465C145.036 178.755 145.18 179.166 145.18 179.699V183H143.821V179.967C143.821 179.694 143.749 179.49 143.604 179.353C143.459 179.217 143.278 179.149 143.061 179.149C142.814 179.149 142.621 179.228 142.482 179.385C142.344 179.541 142.275 179.746 142.275 180.002V183H140.955V179.938C140.955 179.697 140.885 179.506 140.747 179.363C140.611 179.22 140.43 179.149 140.207 179.149C140.055 179.149 139.919 179.187 139.798 179.264C139.678 179.338 139.584 179.444 139.513 179.58C139.443 179.714 139.408 179.872 139.408 180.053V183H138.046Z" fill="white"/>
<path d="M249 152.469L248.003 152.469L245.846 150.14C245.654 149.941 245.481 149.775 245.328 149.641C245.174 149.505 245.024 149.401 244.877 149.331C244.728 149.261 244.567 149.225 244.395 149.225C244.203 149.225 244.038 149.269 243.899 149.357C243.759 149.444 243.651 149.563 243.576 149.714C243.5 149.866 243.461 150.037 243.461 150.229C243.461 150.429 243.502 150.604 243.583 150.753C243.664 150.902 243.78 151.017 243.931 151.098C244.082 151.179 244.262 151.22 244.471 151.22L244.471 152.533C244.043 152.533 243.671 152.436 243.356 152.243C243.04 152.049 242.797 151.777 242.624 151.428C242.451 151.078 242.365 150.675 242.365 150.219C242.365 149.751 242.448 149.343 242.614 148.995C242.778 148.646 243.006 148.374 243.298 148.18C243.59 147.987 243.925 147.89 244.302 147.89C244.549 147.89 244.793 147.939 245.034 148.037C245.275 148.132 245.542 148.304 245.836 148.551C246.128 148.798 246.478 149.147 246.887 149.596L247.824 150.552L247.869 150.552L247.869 147.803L249 147.803L249 152.469ZM249.144 144.234C249.142 144.784 249.006 145.257 248.738 145.653C248.469 146.047 248.081 146.351 247.571 146.564C247.062 146.775 246.45 146.879 245.734 146.877C245.02 146.877 244.412 146.772 243.909 146.561C243.406 146.348 243.023 146.044 242.761 145.65C242.497 145.254 242.365 144.782 242.365 144.234C242.365 143.687 242.497 143.216 242.761 142.821C243.026 142.425 243.409 142.12 243.912 141.907C244.413 141.694 245.02 141.589 245.734 141.591C246.452 141.591 247.065 141.698 247.575 141.911C248.084 142.122 248.473 142.424 248.741 142.818C249.01 143.212 249.144 143.684 249.144 144.234ZM247.996 144.234C247.996 143.859 247.808 143.56 247.431 143.336C247.054 143.112 246.488 143.002 245.734 143.004C245.237 143.004 244.824 143.055 244.494 143.157C244.163 143.257 243.915 143.4 243.749 143.585C243.583 143.769 243.5 143.985 243.5 144.234C243.5 144.607 243.686 144.905 244.059 145.129C244.432 145.353 244.99 145.466 245.734 145.468C246.237 145.468 246.656 145.418 246.993 145.318C247.327 145.215 247.579 145.071 247.747 144.886C247.913 144.701 247.996 144.483 247.996 144.234ZM249.096 136.29C249.096 136.793 248.989 137.226 248.776 137.588C248.561 137.948 248.263 138.225 247.881 138.419C247.5 138.611 247.061 138.707 246.565 138.707C246.062 138.707 245.621 138.61 245.241 138.416C244.86 138.22 244.563 137.942 244.35 137.582C244.135 137.222 244.027 136.793 244.027 136.297C244.027 135.869 244.105 135.494 244.26 135.172C244.416 134.85 244.634 134.595 244.915 134.408C245.197 134.22 245.527 134.117 245.906 134.098L245.906 135.383C245.661 135.419 245.464 135.515 245.315 135.67C245.164 135.824 245.088 136.025 245.088 136.274C245.088 136.485 245.146 136.67 245.261 136.827C245.374 136.983 245.539 137.104 245.756 137.192C245.973 137.279 246.237 137.323 246.545 137.323C246.859 137.323 247.125 137.28 247.344 137.195C247.564 137.108 247.731 136.985 247.846 136.827C247.961 136.67 248.019 136.485 248.019 136.274C248.019 136.119 247.987 135.979 247.923 135.856C247.859 135.73 247.766 135.627 247.645 135.546C247.521 135.463 247.373 135.408 247.201 135.383L247.201 134.098C247.576 134.119 247.906 134.222 248.191 134.405C248.475 134.586 248.696 134.836 248.856 135.156C249.016 135.475 249.096 135.854 249.096 136.29ZM249 133.226L244.091 133.226L244.091 131.929L244.957 131.929L244.957 131.871C244.669 131.769 244.442 131.598 244.276 131.36C244.11 131.121 244.027 130.836 244.027 130.503C244.027 130.167 244.111 129.88 244.279 129.643C244.446 129.407 244.672 129.249 244.957 129.17L244.957 129.119C244.676 129.019 244.451 128.838 244.283 128.576C244.112 128.312 244.027 128 244.027 127.64C244.027 127.181 244.173 126.81 244.465 126.524C244.755 126.237 245.166 126.093 245.699 126.093L249 126.093L249 127.451L245.967 127.451C245.694 127.451 245.49 127.523 245.353 127.668C245.217 127.813 245.149 127.994 245.149 128.212C245.149 128.459 245.228 128.652 245.385 128.79C245.541 128.929 245.746 128.998 246.002 128.998L249 128.998L249 130.318L245.938 130.318C245.697 130.318 245.506 130.387 245.363 130.526C245.22 130.662 245.149 130.842 245.149 131.066C245.149 131.217 245.187 131.353 245.264 131.475C245.338 131.594 245.444 131.689 245.58 131.759C245.714 131.83 245.872 131.865 246.053 131.865L249 131.865L249 133.226Z" fill="white"/>
<mask id="mask0_9_42" style="mask-type:luminance" maskUnits="userSpaceOnUse" x="29" y="111" width="206" height="57">
<rect x="29" y="111" width="206" height="57" fill="white"/>
</mask>
<g mask="url(#mask0_9_42)">
<path d="M39.0777 176L3 157.083L16.1836 151.455L39.0777 163.467L68.5282 148.011L98.0141 163.467L127.5 148.011L156.95 163.467L186.436 148.011L215.922 163.467L238.816 151.455L252 157.083L215.922 176L186.436 160.544L156.95 176L127.5 160.544L98.0141 176L68.5282 160.544L39.0777 176ZM39.0777 147.994L3 129.078L16.1836 123.466L39.0777 135.462L68.5282 120.006L98.0141 135.462L127.5 120.006L156.95 135.462L186.436 120.006L215.922 135.462L238.816 123.466L252 129.078L215.922 147.994L186.436 132.538L156.95 147.994L127.5 132.538L98.0141 147.994L68.5282 132.538L39.0777 147.994ZM39.0777 119.989L3 101.089L16.1836 95.4608L39.0777 107.456L68.5282 92L98.0141 107.456L127.5 92L156.95 107.456L186.436 92L215.922 107.456L238.816 95.4608L252 101.089L215.922 119.989L186.436 104.533L156.95 119.989L127.5 104.533L98.0141 119.989L68.5282 104.533L39.0777 119.989Z" fill="#9D9D9D"/>
</g>
</svg>
