<svg width="1232" height="1232" viewBox="0 0 1232 1232" fill="none" xmlns="http://www.w3.org/2000/svg">
<path d="M348.144 342.985C348.026 343.686 347.663 344.322 347.12 344.782C346.577 345.241 345.889 345.492 345.179 345.492C344.468 345.492 343.78 345.241 343.237 344.782C342.694 344.322 342.331 343.686 342.213 342.985C342.141 342.554 342.163 342.112 342.279 341.691C342.394 341.269 342.6 340.878 342.882 340.544C343.165 340.21 343.516 339.942 343.913 339.758C344.31 339.574 344.741 339.479 345.179 339.479C345.616 339.479 346.048 339.574 346.444 339.758C346.841 339.942 347.192 340.21 347.474 340.544C347.757 340.878 347.963 341.269 348.079 341.691C348.194 342.112 348.216 342.554 348.144 342.985V342.985Z" fill="white"/>
<path d="M1108.58 625.39C1108.46 626.091 1108.09 626.727 1107.55 627.186C1107.01 627.645 1106.32 627.897 1105.61 627.897C1104.9 627.897 1104.21 627.645 1103.67 627.186C1103.13 626.727 1102.76 626.091 1102.64 625.39C1102.57 624.958 1102.59 624.517 1102.71 624.095C1102.83 623.674 1103.03 623.282 1103.31 622.949C1103.6 622.615 1103.95 622.346 1104.34 622.162C1104.74 621.978 1105.17 621.883 1105.61 621.883C1106.05 621.883 1106.48 621.978 1106.88 622.162C1107.27 622.346 1107.62 622.615 1107.91 622.949C1108.19 623.282 1108.39 623.674 1108.51 624.095C1108.63 624.517 1108.65 624.958 1108.58 625.39V625.39Z" fill="white"/>
<path d="M1003.66 404.459C1003.66 405.236 1003.43 405.995 1003 406.64C1002.57 407.286 1001.96 407.789 1001.24 408.086C1000.52 408.383 999.734 408.461 998.973 408.31C998.211 408.158 997.512 407.784 996.963 407.235C996.414 406.686 996.04 405.987 995.888 405.225C995.737 404.464 995.815 403.674 996.112 402.957C996.409 402.24 996.912 401.627 997.558 401.195C998.203 400.764 998.962 400.534 999.738 400.534C1000.77 400.555 1001.76 400.975 1002.49 401.707C1003.22 402.439 1003.64 403.425 1003.66 404.459V404.459Z" fill="white"/>
<path d="M1146.83 502.855C1146.85 503.456 1146.68 504.049 1146.36 504.556C1146.03 505.063 1145.57 505.461 1145.01 505.699C1144.46 505.937 1143.85 506.004 1143.26 505.89C1142.67 505.777 1142.12 505.489 1141.7 505.063C1141.27 504.638 1140.98 504.095 1140.87 503.504C1140.76 502.913 1140.82 502.301 1141.06 501.749C1141.3 501.196 1141.7 500.727 1142.21 500.403C1142.71 500.079 1143.3 499.915 1143.91 499.931C1144.67 499.952 1145.41 500.267 1145.95 500.811C1146.49 501.355 1146.81 502.086 1146.83 502.855Z" fill="white"/>
<path d="M1206.05 817.085C1206.12 817.516 1206.1 817.957 1205.99 818.379C1205.87 818.801 1205.66 819.192 1205.38 819.526C1205.1 819.859 1204.75 820.128 1204.35 820.312C1203.96 820.496 1203.52 820.591 1203.09 820.591C1202.65 820.591 1202.22 820.496 1201.82 820.312C1201.42 820.128 1201.07 819.859 1200.79 819.526C1200.51 819.192 1200.3 818.801 1200.19 818.379C1200.07 817.957 1200.05 817.516 1200.12 817.085C1200.24 816.384 1200.6 815.747 1201.14 815.288C1201.69 814.829 1202.38 814.577 1203.09 814.577C1203.8 814.577 1204.48 814.829 1205.03 815.288C1205.57 815.747 1205.93 816.384 1206.05 817.085Z" fill="white"/>
<path d="M193.452 836.462C193.782 835.748 194.371 835.186 195.101 834.891C195.83 834.596 196.645 834.59 197.378 834.875C198.092 835.204 198.649 835.798 198.93 836.532C199.211 837.265 199.194 838.08 198.882 838.801C198.737 839.159 198.52 839.483 198.246 839.755C197.971 840.026 197.644 840.239 197.284 840.38C196.925 840.521 196.54 840.586 196.154 840.573C195.768 840.56 195.389 840.469 195.04 840.304C194.682 840.158 194.356 839.942 194.083 839.669C193.809 839.396 193.592 839.072 193.444 838.715C193.296 838.357 193.221 837.974 193.223 837.587C193.224 837.201 193.302 836.819 193.452 836.462V836.462Z" fill="white"/>
<path d="M107.25 716.349C107.823 715.017 108.777 713.884 109.992 713.092C111.208 712.301 112.63 711.887 114.08 711.903C115.53 711.918 116.943 712.362 118.142 713.179C119.34 713.996 120.27 715.149 120.815 716.493C121.359 717.837 121.494 719.312 121.202 720.732C120.91 722.153 120.205 723.455 119.174 724.476C118.144 725.496 116.835 726.189 115.411 726.467C113.988 726.745 112.514 726.596 111.176 726.038C109.377 725.265 107.957 723.814 107.222 722C106.487 720.186 106.497 718.155 107.25 716.349V716.349Z" fill="white"/>
<path d="M891.99 92.654C892.001 93.0448 891.933 93.4341 891.792 93.7985C891.65 94.1629 891.436 94.4952 891.163 94.7755C890.891 95.0559 890.565 95.2785 890.204 95.4306C889.844 95.5828 889.457 95.6612 889.066 95.6611C888.365 95.543 887.729 95.1802 887.27 94.6374C886.81 94.0945 886.559 93.4067 886.559 92.6958C886.559 91.9849 886.81 91.297 887.27 90.7542C887.729 90.2113 888.365 89.8485 889.066 89.7305C889.841 89.7305 890.585 90.0387 891.133 90.5869C891.682 91.1352 891.99 91.8786 891.99 92.654V92.654Z" fill="white"/>
<path d="M1014.02 169.081C1013.9 169.782 1013.54 170.419 1013 170.878C1012.45 171.337 1011.76 171.588 1011.05 171.588C1010.34 171.588 1009.66 171.337 1009.11 170.878C1008.57 170.419 1008.21 169.782 1008.09 169.081C1008.21 168.38 1008.57 167.743 1009.11 167.284C1009.66 166.825 1010.34 166.573 1011.05 166.573C1011.76 166.573 1012.45 166.825 1013 167.284C1013.54 167.743 1013.9 168.38 1014.02 169.081Z" fill="white"/>
<path d="M737.216 586.133C737.527 585.425 738.106 584.869 738.826 584.587C739.546 584.306 740.349 584.32 741.058 584.629C741.588 584.86 742.039 585.243 742.351 585.73C742.664 586.217 742.825 586.786 742.815 587.364C742.804 587.943 742.621 588.505 742.291 588.98C741.96 589.455 741.496 589.821 740.957 590.032C740.418 590.243 739.828 590.289 739.263 590.165C738.698 590.041 738.183 589.751 737.782 589.334C737.381 588.916 737.114 588.389 737.013 587.819C736.912 587.249 736.983 586.662 737.216 586.133V586.133Z" fill="white"/>
<path d="M655.024 467.858C655.336 467.129 655.924 466.553 656.66 466.256C657.395 465.959 658.218 465.964 658.949 466.271C659.663 466.599 660.22 467.193 660.501 467.927C660.782 468.661 660.765 469.475 660.453 470.196C660.141 470.904 659.562 471.46 658.842 471.742C658.122 472.023 657.32 472.008 656.611 471.7C656.253 471.553 655.927 471.337 655.653 471.065C655.38 470.792 655.163 470.467 655.015 470.11C654.868 469.753 654.792 469.37 654.794 468.983C654.795 468.596 654.873 468.214 655.024 467.858V467.858Z" fill="white"/>
<path d="M726.103 149.787C726.505 148.882 727.249 148.173 728.172 147.813C729.094 147.453 730.122 147.472 731.031 147.866C731.494 148.048 731.914 148.322 732.268 148.672C732.622 149.022 732.901 149.44 733.088 149.9C733.276 150.361 733.368 150.855 733.359 151.353C733.35 151.85 733.24 152.34 733.035 152.794C732.838 153.249 732.553 153.661 732.196 154.006C731.84 154.351 731.418 154.622 730.957 154.805C730.495 154.987 730.003 155.076 729.507 155.068C729.01 155.06 728.521 154.954 728.066 154.757C727.61 154.559 727.198 154.274 726.853 153.918C726.508 153.561 726.237 153.14 726.055 152.678C725.873 152.217 725.783 151.724 725.791 151.228C725.799 150.732 725.905 150.242 726.103 149.787V149.787Z" fill="white"/>
<path d="M169.897 47.5493C169.897 48.5462 169.501 49.5023 168.797 50.2072C168.092 50.9121 167.136 51.3082 166.139 51.3082C165.142 51.3082 164.186 50.9121 163.481 50.2072C162.776 49.5023 162.38 48.5462 162.38 47.5493C162.401 46.5592 162.804 45.6155 163.504 44.9152C164.205 44.2148 165.148 43.8118 166.139 43.7905C167.136 43.7905 168.092 44.1866 168.797 44.8915C169.501 45.5964 169.897 46.5525 169.897 47.5493V47.5493Z" fill="white"/>
<path d="M300.282 132.913C300.282 133.689 299.974 134.432 299.425 134.981C298.877 135.529 298.134 135.837 297.358 135.837C296.657 135.719 296.021 135.356 295.562 134.813C295.103 134.27 294.851 133.582 294.851 132.872C294.851 132.161 295.103 131.473 295.562 130.93C296.021 130.387 296.657 130.024 297.358 129.906C297.749 129.906 298.136 129.985 298.497 130.137C298.857 130.289 299.183 130.512 299.456 130.792C299.728 131.072 299.942 131.404 300.084 131.769C300.226 132.133 300.293 132.522 300.282 132.913V132.913Z" fill="white"/>
<path d="M10.7804 119.549C11.0932 118.82 11.6813 118.245 12.4166 117.947C13.1519 117.65 13.9748 117.655 14.7062 117.962C15.42 118.29 15.977 118.885 16.258 119.618C16.539 120.352 16.5215 121.167 16.2096 121.888C15.8995 122.608 15.316 123.175 14.5876 123.465C13.8592 123.754 13.0456 123.743 12.3256 123.433C11.6056 123.123 11.0383 122.539 10.7485 121.811C10.4587 121.082 10.4702 120.269 10.7804 119.549V119.549Z" fill="white"/>
<path d="M64.4854 815.997C64.4854 816.772 64.1774 817.516 63.6291 818.064C63.0809 818.613 62.3372 818.921 61.5619 818.921C60.8608 818.803 60.2244 818.44 59.7653 817.897C59.3063 817.354 59.0544 816.666 59.0544 815.955C59.0544 815.244 59.3063 814.557 59.7653 814.014C60.2244 813.471 60.8608 813.108 61.5619 812.99C61.9529 812.99 62.34 813.068 62.7003 813.22C63.0605 813.373 63.3866 813.595 63.6592 813.876C63.9318 814.156 64.1454 814.488 64.2873 814.853C64.4292 815.217 64.4965 815.606 64.4854 815.997V815.997Z" fill="white"/>
<path d="M123.538 1130.06C123.611 1130.49 123.589 1130.93 123.473 1131.35C123.357 1131.78 123.151 1132.17 122.869 1132.5C122.587 1132.83 122.235 1133.1 121.839 1133.29C121.442 1133.47 121.01 1133.57 120.573 1133.57C120.136 1133.57 119.704 1133.47 119.307 1133.29C118.911 1133.1 118.559 1132.83 118.277 1132.5C117.995 1132.17 117.789 1131.78 117.673 1131.35C117.558 1130.93 117.535 1130.49 117.608 1130.06C117.726 1129.36 118.088 1128.72 118.631 1128.26C119.174 1127.8 119.862 1127.55 120.573 1127.55C121.284 1127.55 121.972 1127.8 122.515 1128.26C123.058 1128.72 123.42 1129.36 123.538 1130.06V1130.06Z" fill="white"/>
<path d="M263.28 188.628C263.353 189.059 263.331 189.501 263.215 189.923C263.1 190.344 262.893 190.736 262.611 191.069C262.329 191.403 261.977 191.671 261.581 191.855C261.184 192.039 260.752 192.135 260.315 192.135C259.878 192.135 259.446 192.039 259.049 191.855C258.653 191.671 258.301 191.403 258.019 191.069C257.737 190.736 257.531 190.344 257.415 189.923C257.299 189.501 257.277 189.059 257.35 188.628C257.468 187.927 257.831 187.291 258.373 186.832C258.916 186.372 259.604 186.121 260.315 186.121C261.026 186.121 261.714 186.372 262.257 186.832C262.8 187.291 263.162 187.927 263.28 188.628Z" fill="white"/>
<path d="M1194.11 136.506C1194.36 135.9 1194.85 135.42 1195.46 135.169C1196.07 134.919 1196.75 134.919 1197.36 135.17C1197.96 135.46 1198.43 135.964 1198.68 136.582C1198.93 137.2 1198.93 137.888 1198.7 138.511C1198.57 138.811 1198.39 139.083 1198.15 139.309C1197.92 139.536 1197.64 139.713 1197.34 139.83C1197.03 139.947 1196.71 140.002 1196.38 139.99C1196.06 139.979 1195.74 139.902 1195.44 139.764C1195.13 139.645 1194.85 139.465 1194.62 139.235C1194.38 139.004 1194.2 138.728 1194.07 138.423C1193.95 138.118 1193.89 137.791 1193.89 137.461C1193.9 137.132 1193.97 136.807 1194.11 136.506Z" fill="white"/>
<path d="M1124.69 36.5227C1124.82 36.2225 1125.01 35.951 1125.24 35.7243C1125.48 35.4976 1125.75 35.3203 1126.06 35.2033C1126.36 35.0863 1126.69 35.0321 1127.01 35.0435C1127.34 35.0549 1127.66 35.1319 1127.95 35.2698C1128.56 35.528 1129.04 36.0147 1129.29 36.6244C1129.54 37.2341 1129.54 37.9179 1129.29 38.5275C1129.01 39.1199 1128.53 39.5866 1127.92 39.8344C1127.32 40.0822 1126.64 40.0927 1126.03 39.8637C1125.43 39.5731 1124.96 39.0697 1124.72 38.4518C1124.47 37.8339 1124.46 37.146 1124.69 36.5227V36.5227Z" fill="white"/>
<path d="M86.0364 849.827C86.0529 850.429 85.8885 851.021 85.5646 851.528C85.2406 852.036 84.7719 852.434 84.2192 852.672C83.6665 852.91 83.0551 852.976 82.4642 852.863C81.8732 852.75 81.3297 852.461 80.9042 852.036C80.4787 851.61 80.1906 851.067 80.0772 850.476C79.9639 849.885 80.0306 849.274 80.2684 848.721C80.5063 848.168 80.9046 847.7 81.4117 847.376C81.9188 847.052 82.5114 846.887 83.1129 846.904C83.8816 846.925 84.613 847.24 85.1567 847.783C85.7005 848.327 86.0153 849.059 86.0364 849.827V849.827Z" fill="white"/>
<path d="M208.154 926.255C208.036 926.956 207.673 927.592 207.13 928.051C206.587 928.51 205.899 928.762 205.189 928.762C204.478 928.762 203.79 928.51 203.247 928.051C202.704 927.592 202.342 926.956 202.223 926.255C202.151 925.823 202.173 925.382 202.288 924.96C202.404 924.539 202.61 924.147 202.893 923.813C203.175 923.48 203.526 923.211 203.923 923.027C204.319 922.843 204.751 922.748 205.189 922.748C205.626 922.748 206.058 922.843 206.454 923.027C206.851 923.211 207.202 923.48 207.485 923.813C207.767 924.147 207.973 924.539 208.089 924.96C208.204 925.382 208.226 925.823 208.154 926.255V926.255Z" fill="white"/>
<path d="M846.467 1132.23C846.349 1132.93 845.987 1133.57 845.444 1134.03C844.901 1134.49 844.213 1134.74 843.502 1134.74C842.791 1134.74 842.103 1134.49 841.561 1134.03C841.018 1133.57 840.655 1132.93 840.537 1132.23C840.655 1131.53 841.018 1130.89 841.561 1130.44C842.103 1129.98 842.791 1129.72 843.502 1129.72C844.213 1129.72 844.901 1129.98 845.444 1130.44C845.987 1130.89 846.349 1131.53 846.467 1132.23V1132.23Z" fill="white"/>
<path d="M741.641 911.386C741.641 911.901 741.54 912.412 741.343 912.888C741.145 913.364 740.856 913.797 740.491 914.162C740.127 914.526 739.694 914.815 739.218 915.013C738.742 915.21 738.231 915.312 737.716 915.312C736.674 915.312 735.676 914.898 734.94 914.162C734.203 913.425 733.79 912.427 733.79 911.386C733.79 910.345 734.203 909.346 734.94 908.61C735.676 907.873 736.674 907.46 737.716 907.46C738.231 907.46 738.742 907.561 739.218 907.759C739.694 907.956 740.127 908.245 740.491 908.61C740.856 908.974 741.145 909.407 741.343 909.883C741.54 910.36 741.641 910.87 741.641 911.386V911.386Z" fill="white"/>
<path d="M884.721 1009.78C884.603 1010.48 884.24 1011.12 883.697 1011.58C883.154 1012.04 882.466 1012.29 881.755 1012.29C881.044 1012.29 880.357 1012.04 879.814 1011.58C879.271 1011.12 878.908 1010.48 878.79 1009.78C878.718 1009.35 878.74 1008.91 878.855 1008.49C878.971 1008.06 879.177 1007.67 879.459 1007.34C879.742 1007.01 880.093 1006.74 880.49 1006.55C880.886 1006.37 881.318 1006.27 881.755 1006.27C882.192 1006.27 882.624 1006.37 883.021 1006.55C883.417 1006.74 883.769 1007.01 884.051 1007.34C884.334 1007.67 884.54 1008.06 884.655 1008.49C884.771 1008.91 884.793 1009.35 884.721 1009.78V1009.78Z" fill="white"/>
<path d="M751.913 675.923C751.986 676.354 751.963 676.796 751.848 677.218C751.732 677.639 751.526 678.03 751.244 678.364C750.962 678.698 750.61 678.966 750.213 679.15C749.817 679.334 749.385 679.429 748.948 679.429C748.511 679.429 748.079 679.334 747.682 679.15C747.286 678.966 746.934 678.698 746.652 678.364C746.37 678.03 746.163 677.639 746.048 677.218C745.932 676.796 745.91 676.354 745.983 675.923C746.101 675.222 746.463 674.586 747.006 674.126C747.549 673.667 748.237 673.416 748.948 673.416C749.659 673.416 750.347 673.667 750.889 674.126C751.432 674.586 751.795 675.222 751.913 675.923Z" fill="white"/>
<path d="M811.05 990.152C811.066 990.754 810.902 991.346 810.578 991.853C810.254 992.36 809.785 992.759 809.233 992.997C808.68 993.235 808.069 993.301 807.478 993.188C806.887 993.074 806.343 992.786 805.918 992.361C805.492 991.935 805.204 991.392 805.091 990.801C804.978 990.21 805.044 989.599 805.282 989.046C805.52 988.493 805.918 988.024 806.425 987.7C806.932 987.377 807.525 987.212 808.126 987.229C808.895 987.25 809.626 987.565 810.17 988.108C810.714 988.652 811.029 989.383 811.05 990.152V990.152Z" fill="white"/>
<path d="M475.106 1093.06C475.253 1092.7 475.469 1092.37 475.742 1092.1C476.014 1091.83 476.339 1091.61 476.696 1091.46C477.054 1091.31 477.437 1091.24 477.823 1091.24C478.21 1091.24 478.592 1091.32 478.949 1091.47C479.663 1091.8 480.225 1092.39 480.52 1093.12C480.815 1093.85 480.82 1094.66 480.536 1095.4C480.207 1096.11 479.613 1096.67 478.879 1096.95C478.146 1097.23 477.331 1097.21 476.61 1096.9C476.252 1096.75 475.927 1096.54 475.656 1096.26C475.384 1095.99 475.172 1095.66 475.031 1095.3C474.89 1094.94 474.824 1094.56 474.837 1094.17C474.85 1093.79 474.942 1093.41 475.106 1093.06V1093.06Z" fill="white"/>
<path d="M392.916 974.7C393.244 973.986 393.839 973.429 394.572 973.148C395.306 972.867 396.121 972.885 396.842 973.196C397.2 973.341 397.524 973.558 397.796 973.832C398.067 974.107 398.28 974.434 398.42 974.794C398.561 975.154 398.627 975.538 398.614 975.924C398.601 976.31 398.51 976.689 398.345 977.039C398.199 977.396 397.983 977.722 397.71 977.996C397.437 978.269 397.113 978.486 396.755 978.634C396.398 978.782 396.015 978.857 395.628 978.856C395.242 978.854 394.859 978.776 394.503 978.626C393.774 978.313 393.198 977.725 392.901 976.989C392.604 976.254 392.609 975.431 392.916 974.7Z" fill="white"/>
<path d="M38.2601 639.757C38.1421 640.458 37.7793 641.094 37.2364 641.553C36.6936 642.012 36.0057 642.264 35.2948 642.264C34.5839 642.264 33.8961 642.012 33.3532 641.553C32.8104 641.094 32.4476 640.458 32.3295 639.757C32.4476 639.055 32.8104 638.419 33.3532 637.96C33.8961 637.501 34.5839 637.249 35.2948 637.249C36.0057 637.249 36.6936 637.501 37.2364 637.96C37.7793 638.419 38.1421 639.055 38.2601 639.757Z" fill="white"/>
<path d="M97.398 953.985C97.2799 954.686 96.9174 955.322 96.3746 955.782C95.8317 956.241 95.1439 956.492 94.433 956.492C93.722 956.492 93.0339 956.241 92.4911 955.782C91.9483 955.322 91.5857 954.686 91.4677 953.985C91.3951 953.554 91.4173 953.112 91.5329 952.69C91.6485 952.269 91.8545 951.878 92.1368 951.544C92.4191 951.21 92.7708 950.942 93.1674 950.758C93.5639 950.574 93.9958 950.479 94.433 950.479C94.8701 950.479 95.3018 950.574 95.6983 950.758C96.0948 950.942 96.4466 951.21 96.7289 951.544C97.0112 951.878 97.2172 952.269 97.3328 952.69C97.4483 953.112 97.4706 953.554 97.398 953.985V953.985Z" fill="white"/>
<path d="M408.368 300.47C408.385 301.071 408.22 301.664 407.896 302.171C407.573 302.678 407.104 303.076 406.551 303.314C405.998 303.552 405.387 303.619 404.796 303.505C404.205 303.392 403.662 303.104 403.236 302.678C402.811 302.253 402.523 301.709 402.409 301.118C402.296 300.527 402.362 299.916 402.6 299.363C402.838 298.811 403.236 298.342 403.744 298.018C404.251 297.694 404.843 297.53 405.445 297.546C406.22 297.546 406.964 297.854 407.512 298.402C408.06 298.951 408.368 299.694 408.368 300.47Z" fill="white"/>
<path d="M987.879 194.389C987.892 194.783 987.821 195.176 987.674 195.542C987.526 195.908 987.303 196.239 987.02 196.514C986.737 196.789 986.4 197.002 986.03 197.139C985.661 197.277 985.266 197.336 984.872 197.312C984.488 197.312 984.108 197.237 983.753 197.09C983.399 196.943 983.076 196.728 982.805 196.456C982.533 196.185 982.318 195.862 982.171 195.508C982.024 195.153 981.949 194.773 981.949 194.389C981.948 193.998 982.027 193.611 982.179 193.25C982.331 192.89 982.554 192.564 982.834 192.292C983.115 192.019 983.447 191.806 983.811 191.664C984.176 191.522 984.565 191.454 984.956 191.466C985.34 191.466 985.72 191.541 986.074 191.688C986.429 191.835 986.752 192.05 987.023 192.322C987.294 192.593 987.51 192.916 987.657 193.27C987.804 193.625 987.879 194.005 987.879 194.389V194.389Z" fill="white"/>
<path d="M1026.55 72.1057C1026.55 72.4896 1026.47 72.8697 1026.33 73.2244C1026.18 73.5791 1025.96 73.9015 1025.69 74.1729C1025.42 74.4444 1025.1 74.6597 1024.75 74.8066C1024.39 74.9535 1024.01 75.0291 1023.63 75.0291C1023.24 75.0293 1022.85 74.9508 1022.49 74.7987C1022.13 74.6466 1021.8 74.424 1021.53 74.1436C1021.26 73.8632 1021.04 73.531 1020.9 73.1666C1020.76 72.8022 1020.69 72.4129 1020.7 72.022C1020.7 71.2467 1021.01 70.5033 1021.56 69.955C1022.11 69.4068 1022.85 69.0985 1023.63 69.0985C1024.02 69.0862 1024.41 69.1564 1024.78 69.3043C1025.14 69.4521 1025.48 69.6747 1025.75 69.9576C1026.03 70.2405 1026.24 70.5775 1026.38 70.9474C1026.51 71.3172 1026.57 71.7118 1026.55 72.1057V72.1057Z" fill="white"/>
<path d="M1084.6 386.5C1084.48 387.201 1084.12 387.838 1083.58 388.297C1083.03 388.756 1082.35 389.008 1081.64 389.008C1080.92 389.008 1080.24 388.756 1079.69 388.297C1079.15 387.838 1078.79 387.201 1078.67 386.5C1078.6 386.069 1078.62 385.628 1078.74 385.206C1078.85 384.785 1079.06 384.393 1079.34 384.059C1079.62 383.726 1079.97 383.457 1080.37 383.273C1080.77 383.089 1081.2 382.994 1081.64 382.994C1082.07 382.994 1082.5 383.089 1082.9 383.273C1083.3 383.457 1083.65 383.726 1083.93 384.059C1084.21 384.393 1084.42 384.785 1084.54 385.206C1084.65 385.628 1084.67 386.069 1084.6 386.5V386.5Z" fill="white"/>
<path d="M72.003 402.122C72.2403 401.573 72.6357 401.108 73.1386 400.785C73.6416 400.462 74.2294 400.297 74.8269 400.309C75.4244 400.322 76.0046 400.512 76.4934 400.856C76.9822 401.2 77.3574 401.682 77.5712 402.24C77.7849 402.798 77.8273 403.407 77.6933 403.99C77.5592 404.572 77.2548 405.102 76.8187 405.51C76.3825 405.919 75.8346 406.188 75.2446 406.284C74.6547 406.379 74.0497 406.297 73.5067 406.048C72.7929 405.719 72.2358 405.125 71.9548 404.391C71.6739 403.657 71.6911 402.843 72.003 402.122Z" fill="white"/>
<path d="M952.962 52.2275C952.962 52.6114 952.887 52.9915 952.74 53.3462C952.593 53.7009 952.377 54.0233 952.106 54.2947C951.834 54.5662 951.512 54.7815 951.158 54.9284C950.803 55.0753 950.423 55.151 950.039 55.151C949.437 55.1674 948.845 55.0031 948.338 54.6791C947.831 54.3552 947.432 53.8865 947.194 53.3337C946.957 52.781 946.89 52.1697 947.003 51.5787C947.117 50.9878 947.405 50.4442 947.83 50.0187C948.256 49.5932 948.799 49.3054 949.39 49.1921C949.981 49.0787 950.592 49.1451 951.145 49.383C951.698 49.6209 952.166 50.0191 952.49 50.5262C952.814 51.0333 952.979 51.6259 952.962 52.2275V52.2275Z" fill="white"/>
<path d="M616.35 153.879C616.679 153.165 617.269 152.603 617.999 152.308C618.728 152.013 619.542 152.007 620.276 152.292C620.99 152.62 621.547 153.215 621.828 153.949C622.109 154.682 622.091 155.497 621.779 156.218C621.469 156.938 620.886 157.505 620.157 157.795C619.429 158.085 618.615 158.073 617.895 157.763C617.175 157.453 616.608 156.87 616.318 156.141C616.028 155.413 616.04 154.599 616.35 153.879V153.879Z" fill="white"/>
<path d="M534.912 35.1876C535.149 34.639 535.545 34.1737 536.047 33.8508C536.55 33.528 537.138 33.3625 537.736 33.3752C538.333 33.3879 538.913 33.5783 539.402 33.9222C539.891 34.2661 540.266 34.748 540.48 35.3061C540.694 35.8642 540.736 36.4733 540.602 37.0558C540.468 37.6382 540.164 38.1674 539.728 38.576C539.291 38.9846 538.743 39.2539 538.153 39.3496C537.563 39.4454 536.958 39.363 536.415 39.1133C535.702 38.7851 535.145 38.1907 534.864 37.457C534.583 36.7233 534.6 35.9086 534.912 35.1876V35.1876Z" fill="white"/>
<path d="M239.477 13.3872C239.477 13.7782 239.399 14.1653 239.247 14.5256C239.095 14.8858 238.872 15.2119 238.591 15.4845C238.311 15.7571 237.979 15.9707 237.614 16.1126C237.25 16.2545 236.861 16.3218 236.47 16.3107C236.086 16.3107 235.706 16.235 235.351 16.0881C234.996 15.9412 234.674 15.7259 234.403 15.4544C234.131 15.183 233.916 14.8606 233.769 14.5059C233.622 14.1513 233.547 13.7711 233.547 13.3872C233.535 13.0001 233.603 12.6148 233.745 12.2549C233.888 11.895 234.103 11.568 234.377 11.2941C234.651 11.0203 234.978 10.8056 235.338 10.6627C235.697 10.5199 236.083 10.4521 236.47 10.4637C237.253 10.4634 238.006 10.7688 238.567 11.3148C239.129 11.8608 239.455 12.6042 239.477 13.3872V13.3872Z" fill="white"/>
<path d="M1.17169 695.552C1.17146 696.15 0.992825 696.735 0.658572 697.231C0.32432 697.727 -0.150321 698.112 -0.704656 698.337C-1.25899 698.562 -1.86784 698.617 -2.4533 698.494C-3.03876 698.371 -3.57438 698.076 -3.99139 697.647C-4.40841 697.218 -4.68792 696.674 -4.79434 696.086C-4.90076 695.497 -4.82908 694.89 -4.58863 694.342C-4.34818 693.794 -3.94998 693.331 -3.44462 693.011C-2.93926 692.691 -2.3498 692.528 -1.7518 692.545C-0.968869 692.567 -0.225408 692.893 0.320569 693.455C0.866546 694.016 1.172 694.769 1.17169 695.552V695.552Z" fill="white"/>
<path d="M751.832 889.584C751.832 890.179 751.655 890.76 751.325 891.255C750.995 891.749 750.525 892.135 749.976 892.362C749.426 892.59 748.821 892.649 748.238 892.533C747.655 892.417 747.119 892.131 746.699 891.71C746.278 891.29 745.992 890.754 745.876 890.171C745.76 889.587 745.819 888.983 746.047 888.433C746.274 887.884 746.66 887.414 747.154 887.084C747.649 886.753 748.23 886.577 748.825 886.577C749.622 886.577 750.387 886.894 750.951 887.458C751.515 888.022 751.832 888.787 751.832 889.584V889.584Z" fill="white"/>
<path d="M873.948 966.347C873.964 966.949 873.8 967.541 873.476 968.048C873.152 968.555 872.683 968.954 872.131 969.191C871.578 969.429 870.967 969.496 870.376 969.383C869.785 969.269 869.241 968.981 868.816 968.556C868.39 968.13 868.102 967.587 867.989 966.996C867.876 966.405 867.942 965.793 868.18 965.241C868.418 964.688 868.816 964.219 869.323 963.895C869.83 963.571 870.423 963.407 871.024 963.423C871.793 963.445 872.524 963.759 873.068 964.303C873.612 964.847 873.927 965.578 873.948 966.347V966.347Z" fill="white"/>
<path d="M584.442 952.564C584.587 952.206 584.803 951.882 585.078 951.61C585.352 951.339 585.68 951.126 586.039 950.985C586.399 950.845 586.784 950.779 587.17 950.792C587.556 950.805 587.935 950.896 588.284 951.061C588.642 951.207 588.967 951.423 589.241 951.696C589.515 951.969 589.732 952.293 589.88 952.651C590.027 953.008 590.102 953.391 590.101 953.778C590.099 954.164 590.021 954.547 589.871 954.903C589.558 955.632 588.97 956.207 588.235 956.505C587.5 956.802 586.677 956.797 585.945 956.49C585.231 956.162 584.675 955.567 584.394 954.833C584.113 954.1 584.13 953.285 584.442 952.564V952.564Z" fill="white"/>
<path d="M1140.81 1132.73C1141.14 1132.02 1141.74 1131.46 1142.47 1131.18C1143.2 1130.9 1144.02 1130.92 1144.74 1131.23C1145.1 1131.37 1145.42 1131.59 1145.69 1131.87C1145.97 1132.14 1146.18 1132.47 1146.32 1132.83C1146.46 1133.19 1146.53 1133.57 1146.51 1133.96C1146.5 1134.34 1146.41 1134.72 1146.24 1135.07C1146.1 1135.43 1145.88 1135.75 1145.61 1136.03C1145.34 1136.3 1145.01 1136.52 1144.65 1136.67C1144.3 1136.81 1143.91 1136.89 1143.53 1136.89C1143.14 1136.89 1142.76 1136.81 1142.4 1136.66C1141.69 1136.33 1141.13 1135.74 1140.83 1135.01C1140.54 1134.28 1140.53 1133.47 1140.81 1132.73V1132.73Z" fill="white"/>
<path d="M1059.04 1014.37C1059.19 1014.02 1059.41 1013.69 1059.68 1013.42C1059.95 1013.15 1060.28 1012.94 1060.64 1012.8C1061 1012.66 1061.39 1012.59 1061.77 1012.6C1062.16 1012.62 1062.54 1012.71 1062.89 1012.87C1063.24 1013.02 1063.57 1013.23 1063.84 1013.51C1064.12 1013.78 1064.33 1014.1 1064.48 1014.46C1064.63 1014.82 1064.7 1015.2 1064.7 1015.59C1064.7 1015.97 1064.62 1016.36 1064.47 1016.71C1064.16 1017.44 1063.57 1018.02 1062.84 1018.32C1062.1 1018.61 1061.28 1018.61 1060.55 1018.3C1059.83 1017.97 1059.28 1017.38 1059 1016.64C1058.72 1015.91 1058.73 1015.1 1059.04 1014.37V1014.37Z" fill="white"/>
<path d="M1129.79 696.388C1130.19 695.482 1130.93 694.768 1131.85 694.395C1132.77 694.021 1133.8 694.017 1134.72 694.383C1135.17 694.581 1135.59 694.866 1135.93 695.222C1136.28 695.579 1136.55 696 1136.73 696.462C1136.91 696.923 1137 697.416 1136.99 697.912C1136.98 698.408 1136.88 698.898 1136.68 699.353C1136.48 699.808 1136.2 700.22 1135.84 700.565C1135.48 700.91 1135.06 701.181 1134.6 701.364C1134.14 701.546 1133.65 701.635 1133.15 701.627C1132.66 701.619 1132.17 701.513 1131.71 701.316C1130.81 700.913 1130.1 700.17 1129.74 699.247C1129.38 698.324 1129.4 697.296 1129.79 696.388Z" fill="white"/>
<path d="M763.192 993.659C763.074 994.36 762.711 994.997 762.168 995.456C761.625 995.915 760.938 996.167 760.227 996.167C759.516 996.167 758.828 995.915 758.285 995.456C757.742 994.997 757.379 994.36 757.261 993.659C757.379 992.958 757.742 992.322 758.285 991.863C758.828 991.404 759.516 991.152 760.227 991.152C760.938 991.152 761.625 991.404 762.168 991.863C762.711 992.322 763.074 992.958 763.192 993.659Z" fill="white"/>
<path d="M29.0719 1045.36C29.3847 1044.63 29.9728 1044.06 30.7081 1043.76C31.4434 1043.46 32.2662 1043.47 32.9976 1043.78C33.7114 1044.1 34.2683 1044.7 34.5492 1045.43C34.8302 1046.17 34.813 1046.98 34.5011 1047.7C34.3561 1048.06 34.1398 1048.38 33.8651 1048.66C33.5904 1048.93 33.2632 1049.14 32.9036 1049.28C32.544 1049.42 32.1596 1049.49 31.7736 1049.47C31.3876 1049.46 31.0083 1049.37 30.6589 1049.2C30.301 1049.06 29.9759 1048.84 29.702 1048.57C29.4281 1048.3 29.211 1047.97 29.0635 1047.61C28.9159 1047.26 28.8405 1046.87 28.8419 1046.49C28.8434 1046.1 28.9216 1045.72 29.0719 1045.36Z" fill="white"/>
<path d="M345.053 978.209C345.199 977.851 345.415 977.525 345.688 977.251C345.961 976.978 346.286 976.76 346.643 976.613C347.001 976.465 347.384 976.39 347.77 976.392C348.157 976.393 348.539 976.471 348.896 976.622C349.556 976.977 350.059 977.565 350.308 978.272C350.557 978.979 350.532 979.754 350.239 980.444C349.946 981.134 349.406 981.69 348.725 982.003C348.044 982.315 347.271 982.362 346.557 982.134C345.843 981.806 345.286 981.211 345.005 980.478C344.724 979.744 344.741 978.93 345.053 978.209Z" fill="white"/>
<path d="M69.6645 765.297C69.5464 765.998 69.1839 766.634 68.641 767.093C68.0982 767.552 67.4103 767.804 66.6994 767.804C65.9885 767.804 65.3007 767.552 64.7578 767.093C64.215 766.634 63.8522 765.998 63.7341 765.297C63.8522 764.596 64.215 763.959 64.7578 763.5C65.3007 763.041 65.9885 762.789 66.6994 762.789C67.4103 762.789 68.0982 763.041 68.641 763.5C69.1839 763.959 69.5464 764.596 69.6645 765.297Z" fill="white"/>
<path d="M191.781 841.724C191.781 842.319 191.605 842.9 191.274 843.395C190.944 843.889 190.474 844.275 189.925 844.502C189.375 844.73 188.771 844.789 188.188 844.673C187.604 844.557 187.069 844.271 186.648 843.851C186.227 843.43 185.941 842.894 185.825 842.311C185.709 841.728 185.769 841.123 185.996 840.573C186.224 840.024 186.609 839.554 187.104 839.224C187.598 838.894 188.179 838.717 188.774 838.717C189.572 838.717 190.336 839.034 190.9 839.598C191.464 840.162 191.781 840.927 191.781 841.724V841.724Z" fill="white"/>
<path d="M252.087 1155.87C252.087 1156.68 251.847 1157.47 251.397 1158.14C250.948 1158.82 250.308 1159.34 249.56 1159.65C248.813 1159.96 247.99 1160.04 247.196 1159.88C246.402 1159.73 245.673 1159.34 245.1 1158.76C244.528 1158.19 244.138 1157.46 243.98 1156.67C243.822 1155.87 243.903 1155.05 244.213 1154.3C244.523 1153.55 245.047 1152.92 245.72 1152.47C246.393 1152.02 247.185 1151.78 247.994 1151.78C249.08 1151.78 250.121 1152.21 250.888 1152.97C251.656 1153.74 252.087 1154.78 252.087 1155.87Z" fill="white"/>
<path d="M1016.11 25.7484C1016.12 26.3499 1015.96 26.9425 1015.64 27.4496C1015.31 27.9567 1014.84 28.3547 1014.29 28.5926C1013.74 28.8305 1013.13 28.8971 1012.54 28.7838C1011.94 28.6704 1011.4 28.3823 1010.98 27.9568C1010.55 27.5314 1010.26 26.9881 1010.15 26.3971C1010.04 25.8061 1010.1 25.1948 1010.34 24.6421C1010.58 24.0893 1010.98 23.6206 1011.48 23.2967C1011.99 22.9727 1012.58 22.8084 1013.18 22.8249C1013.57 22.8249 1013.95 22.9005 1014.3 23.0474C1014.66 23.1943 1014.98 23.4096 1015.25 23.6811C1015.52 23.9526 1015.74 24.2749 1015.89 24.6296C1016.03 24.9843 1016.11 25.3644 1016.11 25.7484V25.7484Z" fill="white"/>
<path d="M1074.16 339.893C1074.12 340.669 1073.79 341.401 1073.23 341.943C1072.67 342.485 1071.93 342.797 1071.15 342.817C1070.56 342.816 1069.97 342.638 1069.47 342.304C1068.98 341.969 1068.59 341.495 1068.37 340.94C1068.14 340.386 1068.09 339.777 1068.21 339.192C1068.33 338.606 1068.63 338.071 1069.06 337.654C1069.49 337.237 1070.03 336.957 1070.62 336.851C1071.21 336.744 1071.82 336.816 1072.36 337.056C1072.91 337.297 1073.37 337.695 1073.69 338.2C1074.01 338.706 1074.18 339.295 1074.16 339.893V339.893Z" fill="white"/>
<path d="M737.8 441.88C737.93 441.508 738.134 441.165 738.4 440.873C738.665 440.582 738.988 440.347 739.347 440.183C739.706 440.019 740.094 439.93 740.489 439.92C740.883 439.91 741.276 439.98 741.642 440.126C742.357 440.456 742.919 441.045 743.214 441.775C743.509 442.504 743.514 443.319 743.229 444.052C742.901 444.766 742.306 445.323 741.573 445.604C740.839 445.885 740.025 445.867 739.304 445.556C738.622 445.261 738.084 444.711 737.803 444.024C737.522 443.337 737.521 442.568 737.8 441.88Z" fill="white"/>
<path d="M656.025 323.188C656.353 322.474 656.948 321.917 657.681 321.636C658.415 321.355 659.229 321.373 659.951 321.685C660.664 322.013 661.221 322.607 661.502 323.341C661.783 324.075 661.766 324.889 661.454 325.611C661.143 326.318 660.564 326.874 659.844 327.156C659.123 327.438 658.321 327.422 657.612 327.114C656.897 326.785 656.335 326.195 656.04 325.465C655.745 324.736 655.74 323.922 656.025 323.188V323.188Z" fill="white"/>
<path d="M726.607 11.3826C726.935 10.6688 727.529 10.1117 728.263 9.83076C728.997 9.54978 729.811 9.56702 730.533 9.87894C731.24 10.1903 731.796 10.7696 732.077 11.4897C732.359 12.2098 732.344 13.0123 732.036 13.7214C731.707 14.4359 731.117 14.998 730.387 15.2929C729.658 15.5877 728.844 15.5933 728.11 15.3084C727.396 14.9802 726.839 14.3855 726.558 13.6518C726.277 12.9181 726.295 12.1037 726.607 11.3826V11.3826Z" fill="white"/>
<path d="M1201.04 74.9454C1201.19 74.5875 1201.4 74.2623 1201.67 73.9885C1201.95 73.7146 1202.27 73.4975 1202.63 73.35C1202.99 73.2024 1203.37 73.127 1203.76 73.1284C1204.14 73.1299 1204.53 73.2081 1204.88 73.3584C1205.6 73.6877 1206.16 74.2774 1206.45 75.0068C1206.75 75.7363 1206.75 76.5507 1206.47 77.2841C1206.14 77.9979 1205.55 78.555 1204.81 78.836C1204.08 79.117 1203.26 79.0995 1202.54 78.7876C1202.18 78.6426 1201.86 78.4263 1201.59 78.1516C1201.32 77.8769 1201.1 77.5497 1200.96 77.1901C1200.82 76.8305 1200.76 76.4461 1200.77 76.0601C1200.78 75.6741 1200.87 75.2948 1201.04 74.9454Z" fill="white"/>
<path d="M905.185 53.0627C905.185 53.8459 904.88 54.5984 904.334 55.16C903.788 55.7216 903.044 56.0478 902.261 56.0695C901.867 56.0818 901.474 56.0119 901.108 55.8641C900.743 55.7162 900.412 55.4937 900.136 55.2107C899.861 54.9278 899.648 54.5905 899.511 54.2207C899.373 53.8508 899.314 53.4565 899.338 53.0627C899.338 52.6787 899.413 52.2986 899.56 51.9439C899.707 51.5892 899.923 51.2669 900.194 50.9954C900.466 50.7239 900.788 50.5086 901.143 50.3617C901.497 50.2148 901.877 50.1392 902.261 50.1392C903.037 50.1392 903.78 50.4471 904.328 50.9954C904.877 51.5436 905.185 52.2873 905.185 53.0627Z" fill="white"/>
<path d="M170.983 102.093C171.293 101.373 171.877 100.805 172.605 100.515C173.333 100.226 174.147 100.237 174.867 100.547C175.587 100.857 176.154 101.441 176.444 102.169C176.734 102.898 176.722 103.711 176.412 104.431C176.083 105.146 175.494 105.708 174.764 106.003C174.035 106.298 173.22 106.303 172.487 106.018C171.773 105.69 171.216 105.095 170.935 104.362C170.654 103.628 170.671 102.814 170.983 102.093V102.093Z" fill="white"/>
<path d="M487.135 36.1056C487.463 35.3919 488.058 34.8348 488.791 34.5538C489.525 34.2728 490.339 34.2903 491.061 34.6022C491.418 34.7472 491.743 34.9635 492.015 35.2382C492.286 35.5129 492.499 35.8401 492.639 36.1997C492.78 36.5593 492.846 36.9437 492.833 37.3297C492.82 37.7157 492.728 38.095 492.564 38.4444C492.41 38.8009 492.188 39.1236 491.91 39.3942C491.632 39.6648 491.303 39.878 490.942 40.0215C490.581 40.165 490.196 40.236 489.808 40.2305C489.42 40.2251 489.036 40.1432 488.68 39.9896C488.323 39.8361 488.001 39.6138 487.73 39.3355C487.46 39.0572 487.246 38.7283 487.103 38.3677C486.959 38.007 486.888 37.6215 486.894 37.2333C486.899 36.8452 486.981 36.4621 487.135 36.1056V36.1056Z" fill="white"/>
<path d="M392.414 213.435C392.486 213.866 392.464 214.308 392.348 214.729C392.233 215.151 392.027 215.542 391.744 215.876C391.462 216.21 391.11 216.478 390.714 216.662C390.317 216.846 389.885 216.941 389.448 216.941C389.011 216.941 388.579 216.846 388.183 216.662C387.786 216.478 387.435 216.21 387.152 215.876C386.87 215.542 386.664 215.151 386.548 214.729C386.433 214.308 386.411 213.866 386.483 213.435C386.601 212.734 386.964 212.097 387.507 211.638C388.049 211.179 388.737 210.927 389.448 210.927C390.159 210.927 390.847 211.179 391.39 211.638C391.933 212.097 392.295 212.734 392.414 213.435V213.435Z" fill="white"/>
<path d="M56.0506 314.837C56.362 314.129 56.941 313.573 57.6611 313.291C58.3812 313.01 59.1837 313.025 59.8928 313.333C60.6215 313.646 61.1971 314.234 61.4943 314.969C61.7916 315.705 61.7864 316.527 61.4798 317.259C61.1515 317.973 60.5568 318.53 59.8232 318.81C59.0895 319.091 58.2751 319.074 57.554 318.762C56.8402 318.434 56.2831 317.839 56.0022 317.106C55.7212 316.372 55.7387 315.558 56.0506 314.837V314.837Z" fill="white"/>
<path d="M666.969 735.228C666.851 735.929 666.488 736.566 665.945 737.025C665.403 737.484 664.715 737.736 664.004 737.736C663.293 737.736 662.605 737.484 662.062 737.025C661.519 736.566 661.157 735.929 661.039 735.228C661.039 734.844 661.114 734.464 661.261 734.109C661.408 733.755 661.623 733.432 661.895 733.161C662.166 732.889 662.489 732.674 662.843 732.527C663.198 732.38 663.578 732.305 663.962 732.305C664.745 732.304 665.498 732.61 666.059 733.156C666.621 733.702 666.947 734.445 666.969 735.228V735.228Z" fill="white"/>
<path d="M330.603 836.879C330.748 836.521 330.964 836.196 331.239 835.925C331.513 835.653 331.84 835.441 332.2 835.3C332.56 835.159 332.944 835.093 333.33 835.106C333.716 835.119 334.095 835.211 334.445 835.375C334.975 835.606 335.426 835.989 335.738 836.476C336.051 836.963 336.212 837.532 336.201 838.111C336.19 838.689 336.008 839.252 335.677 839.726C335.347 840.201 334.883 840.568 334.344 840.778C333.805 840.989 333.215 841.035 332.65 840.911C332.085 840.787 331.57 840.497 331.169 840.08C330.768 839.662 330.5 839.135 330.4 838.565C330.299 837.995 330.37 837.408 330.603 836.879V836.879Z" fill="white"/>
<path d="M248.831 718.272C249.161 717.557 249.75 716.995 250.48 716.7C251.209 716.405 252.024 716.4 252.757 716.685C253.471 717.013 254.028 717.608 254.309 718.341C254.59 719.075 254.573 719.89 254.261 720.611C254.116 720.969 253.899 721.293 253.625 721.565C253.35 721.836 253.023 722.049 252.663 722.189C252.303 722.33 251.919 722.396 251.533 722.383C251.147 722.37 250.768 722.279 250.418 722.114C250.061 721.968 249.735 721.752 249.462 721.479C249.188 721.206 248.971 720.882 248.823 720.524C248.675 720.167 248.6 719.784 248.601 719.397C248.603 719.011 248.681 718.628 248.831 718.272Z" fill="white"/>
<path d="M1133.13 64.2541C1133.01 64.9551 1132.65 65.5916 1132.11 66.0506C1131.56 66.5097 1130.88 66.7616 1130.17 66.7616C1129.46 66.7616 1128.77 66.5097 1128.22 66.0506C1127.68 65.5916 1127.32 64.9551 1127.2 64.2541C1127.32 63.553 1127.68 62.9166 1128.22 62.4575C1128.77 61.9985 1129.46 61.7466 1130.17 61.7466C1130.88 61.7466 1131.56 61.9985 1132.11 62.4575C1132.65 62.9166 1133.01 63.553 1133.13 64.2541Z" fill="white"/>
<path d="M797.104 167.494C797.434 166.779 798.023 166.217 798.752 165.922C799.482 165.628 800.296 165.622 801.03 165.907C801.744 166.235 802.301 166.83 802.582 167.563C802.863 168.297 802.845 169.112 802.533 169.833C802.388 170.191 802.172 170.515 801.897 170.787C801.623 171.058 801.296 171.271 800.936 171.412C800.576 171.552 800.192 171.618 799.806 171.605C799.42 171.592 799.04 171.501 798.691 171.336C798.333 171.19 798.008 170.974 797.734 170.701C797.46 170.428 797.243 170.104 797.096 169.746C796.948 169.389 796.873 169.006 796.874 168.619C796.876 168.233 796.954 167.85 797.104 167.494V167.494Z" fill="white"/>
<path d="M710.986 47.5483C711.565 46.2169 712.526 45.0869 713.747 44.3011C714.969 43.5152 716.395 43.1088 717.847 43.1328C719.299 43.1568 720.711 43.6102 721.905 44.4359C723.1 45.2617 724.023 46.4228 724.558 47.7726C725.093 49.1224 725.217 50.6004 724.913 52.0203C724.609 53.4402 723.891 54.7384 722.851 55.7509C721.81 56.7633 720.492 57.445 719.065 57.7095C717.637 57.9741 716.163 57.8098 714.828 57.2375C713.931 56.8648 713.117 56.3158 712.435 55.6232C711.754 54.9305 711.218 54.1083 710.86 53.2049C710.501 52.3015 710.328 51.3353 710.35 50.3637C710.371 49.3921 710.588 48.4348 710.986 47.5483Z" fill="white"/>
<path d="M115.188 43.2059C115.517 42.4921 116.111 41.935 116.845 41.654C117.579 41.373 118.393 41.3903 119.114 41.7022C119.472 41.8471 119.797 42.0638 120.068 42.3384C120.34 42.6131 120.552 42.94 120.693 43.2997C120.834 43.6593 120.9 44.0439 120.887 44.4299C120.874 44.8159 120.782 45.1952 120.617 45.5446C120.471 45.9025 120.255 46.2277 119.982 46.5015C119.71 46.7754 119.385 46.9925 119.028 47.1401C118.67 47.2877 118.287 47.3628 117.901 47.3613C117.514 47.3599 117.132 47.2819 116.775 47.1316C116.047 46.8188 115.471 46.2307 115.173 45.4954C114.876 44.7601 114.882 43.9373 115.188 43.2059V43.2059Z" fill="white"/>
<path d="M546.105 70.5181C546.105 71.1128 545.928 71.6942 545.598 72.1887C545.267 72.6832 544.798 73.0687 544.248 73.2963C543.699 73.5239 543.094 73.5833 542.511 73.4673C541.928 73.3513 541.392 73.0648 540.971 72.6442C540.551 72.2237 540.265 71.6879 540.148 71.1046C540.032 70.5213 540.092 69.9169 540.32 69.3674C540.547 68.818 540.933 68.3484 541.427 68.018C541.922 67.6876 542.503 67.5112 543.098 67.5112C543.493 67.5112 543.884 67.5888 544.248 67.7399C544.613 67.891 544.945 68.1127 545.224 68.3919C545.503 68.6711 545.725 69.0026 545.876 69.3674C546.027 69.7323 546.105 70.1232 546.105 70.5181Z" fill="white"/>
<path d="M668.22 146.946C668.22 147.541 668.043 148.122 667.713 148.616C667.382 149.111 666.913 149.496 666.363 149.724C665.814 149.952 665.209 150.011 664.626 149.895C664.043 149.779 663.507 149.493 663.086 149.072C662.666 148.652 662.38 148.116 662.263 147.533C662.147 146.949 662.207 146.345 662.435 145.795C662.662 145.246 663.048 144.776 663.542 144.446C664.037 144.115 664.618 143.939 665.213 143.939C666.01 143.939 666.775 144.256 667.339 144.82C667.903 145.384 668.22 146.148 668.22 146.946V146.946Z" fill="white"/>
<path d="M727.356 461.092C727.372 461.693 727.208 462.286 726.884 462.793C726.56 463.3 726.091 463.698 725.539 463.936C724.986 464.174 724.375 464.24 723.784 464.127C723.193 464.014 722.649 463.726 722.224 463.3C721.798 462.875 721.51 462.331 721.397 461.74C721.283 461.149 721.35 460.538 721.588 459.985C721.826 459.433 722.224 458.964 722.731 458.64C723.238 458.316 723.831 458.152 724.432 458.168C725.201 458.189 725.933 458.504 726.476 459.048C727.02 459.592 727.335 460.323 727.356 461.092V461.092Z" fill="white"/>
<path d="M391.414 563.996C391.56 563.639 391.776 563.313 392.049 563.04C392.322 562.766 392.646 562.549 393.004 562.401C393.361 562.253 393.744 562.178 394.131 562.18C394.517 562.181 394.9 562.259 395.256 562.41C395.655 562.537 396.022 562.746 396.335 563.023C396.648 563.3 396.9 563.64 397.075 564.02C397.249 564.4 397.342 564.812 397.348 565.23C397.354 565.649 397.273 566.064 397.11 566.449C396.947 566.834 396.705 567.18 396.4 567.466C396.095 567.753 395.734 567.972 395.339 568.111C394.944 568.25 394.525 568.304 394.108 568.272C393.691 568.239 393.286 568.12 392.917 567.922C392.204 567.594 391.647 567 391.366 566.266C391.085 565.532 391.102 564.717 391.414 563.996V563.996Z" fill="white"/>
<path d="M379.214 135.252C379.369 134.87 379.599 134.524 379.89 134.232C380.182 133.941 380.528 133.711 380.909 133.555C381.29 133.399 381.699 133.321 382.111 133.326C382.522 133.33 382.929 133.417 383.307 133.581C384.069 133.929 384.668 134.557 384.979 135.335C385.29 136.112 385.289 136.98 384.978 137.757C384.814 138.132 384.579 138.47 384.285 138.752C383.99 139.035 383.643 139.256 383.262 139.404C382.882 139.551 382.476 139.622 382.068 139.612C381.66 139.602 381.258 139.511 380.885 139.344C380.503 139.189 380.157 138.959 379.865 138.668C379.574 138.377 379.344 138.031 379.188 137.65C379.033 137.269 378.955 136.86 378.959 136.448C378.964 136.036 379.05 135.629 379.214 135.252V135.252Z" fill="white"/>
<path d="M1003.08 176.515C1003.44 175.66 1004.05 174.931 1004.82 174.422C1005.6 173.913 1006.51 173.646 1007.44 173.656C1008.37 173.665 1009.27 173.951 1010.04 174.476C1010.8 175.002 1011.39 175.743 1011.74 176.606C1012.08 177.469 1012.16 178.414 1011.96 179.321C1011.76 180.229 1011.3 181.057 1010.63 181.701C1009.96 182.345 1009.12 182.776 1008.21 182.938C1007.29 183.101 1006.35 182.987 1005.5 182.613C1004.38 182.117 1003.49 181.2 1003.04 180.06C1002.59 178.919 1002.6 177.646 1003.08 176.515V176.515Z" fill="white"/>
<path d="M592.461 5.7847C592.31 6.90711 591.757 7.93668 590.904 8.6822C590.051 9.42772 588.957 9.83844 587.825 9.83844C586.692 9.83844 585.598 9.42772 584.746 8.6822C583.893 7.93668 583.34 6.90711 583.189 5.7847C583.34 4.66229 583.893 3.63272 584.746 2.8872C585.598 2.14168 586.692 1.73096 587.825 1.73096C588.957 1.73096 590.051 2.14168 590.904 2.8872C591.757 3.63272 592.31 4.66229 592.461 5.7847Z" fill="white"/>
<path d="M739.888 208.841C739.737 209.963 739.184 210.993 738.331 211.738C737.478 212.484 736.384 212.895 735.252 212.895C734.119 212.895 733.025 212.484 732.173 211.738C731.32 210.993 730.767 209.963 730.616 208.841C730.767 207.718 731.32 206.689 732.173 205.943C733.025 205.198 734.119 204.787 735.252 204.787C736.384 204.787 737.478 205.198 738.331 205.943C739.184 206.689 739.737 207.718 739.888 208.841V208.841Z" fill="white"/>
<path d="M929.661 328.534C929.661 329.443 929.391 330.331 928.886 331.086C928.381 331.842 927.664 332.431 926.825 332.778C925.985 333.126 925.061 333.217 924.17 333.04C923.279 332.863 922.461 332.425 921.818 331.782C921.176 331.14 920.738 330.321 920.561 329.43C920.384 328.539 920.475 327.615 920.822 326.776C921.17 325.937 921.759 325.219 922.514 324.714C923.27 324.209 924.158 323.94 925.066 323.94C926.285 323.94 927.453 324.424 928.315 325.286C929.177 326.147 929.661 327.316 929.661 328.534V328.534Z" fill="white"/>
<path d="M734.54 265.471C734.54 266.689 734.056 267.858 733.194 268.719C732.333 269.581 731.164 270.065 729.946 270.065C728.727 270.065 727.559 269.581 726.697 268.719C725.836 267.858 725.352 266.689 725.352 265.471C725.352 264.252 725.836 263.084 726.697 262.222C727.559 261.361 728.727 260.877 729.946 260.877C730.552 260.865 731.155 260.976 731.717 261.203C732.28 261.43 732.791 261.768 733.22 262.197C733.648 262.626 733.986 263.137 734.213 263.699C734.44 264.262 734.551 264.864 734.54 265.471V265.471Z" fill="white"/>
<path d="M376.876 1228.29C377.319 1227.23 378.066 1226.34 379.021 1225.71C379.976 1225.08 381.096 1224.75 382.239 1224.76C383.382 1224.77 384.497 1225.12 385.44 1225.77C386.384 1226.41 387.114 1227.32 387.539 1228.38C387.963 1229.44 388.063 1230.61 387.824 1231.73C387.586 1232.84 387.02 1233.87 386.2 1234.66C385.379 1235.46 384.34 1235.99 383.215 1236.19C382.09 1236.4 380.93 1236.26 379.883 1235.81C378.494 1235.2 377.4 1234.07 376.837 1232.66C376.274 1231.26 376.288 1229.68 376.876 1228.29V1228.29Z" fill="white"/>
<path d="M302.205 85.2187C302.46 84.4615 302.869 83.7656 303.407 83.1751C303.946 82.5847 304.601 82.1127 305.331 81.789C306.062 81.4652 306.852 81.2967 307.65 81.2945C308.449 81.2922 309.24 81.4561 309.972 81.7757C310.704 82.0953 311.362 82.5638 311.904 83.1512C312.445 83.7386 312.859 84.4321 313.118 85.1879C313.377 85.9436 313.477 86.745 313.41 87.5411C313.343 88.3373 313.111 89.1108 312.729 89.8126C312.04 91.0793 310.901 92.0416 309.537 92.5095C308.172 92.9774 306.683 92.9169 305.361 92.34C304.039 91.7631 302.982 90.7117 302.398 89.3933C301.813 88.0749 301.744 86.5854 302.205 85.2187V85.2187Z" fill="white"/>
<path d="M497.992 1120.79C498.572 1119.48 499.528 1118.36 500.739 1117.59C501.95 1116.82 503.361 1116.43 504.796 1116.46C506.231 1116.49 507.624 1116.95 508.8 1117.77C509.977 1118.59 510.884 1119.74 511.406 1121.08C511.929 1122.41 512.045 1123.87 511.739 1125.28C511.432 1126.68 510.718 1127.96 509.685 1128.95C508.652 1129.95 507.348 1130.62 505.936 1130.88C504.524 1131.13 503.068 1130.96 501.751 1130.39C500.871 1130.01 500.076 1129.46 499.41 1128.77C498.744 1128.08 498.221 1127.27 497.872 1126.37C497.523 1125.48 497.353 1124.53 497.374 1123.57C497.395 1122.61 497.605 1121.66 497.992 1120.79V1120.79Z" fill="white"/>
<path d="M1044.43 1208.99C1044.44 1209.6 1044.28 1210.19 1043.96 1210.7C1043.63 1211.2 1043.16 1211.6 1042.61 1211.84C1042.06 1212.08 1041.45 1212.14 1040.86 1212.03C1040.26 1211.92 1039.72 1211.63 1039.3 1211.2C1038.87 1210.78 1038.58 1210.23 1038.47 1209.64C1038.36 1209.05 1038.42 1208.44 1038.66 1207.89C1038.9 1207.34 1039.3 1206.87 1039.8 1206.54C1040.31 1206.22 1040.9 1206.05 1041.5 1206.07C1041.89 1206.07 1042.27 1206.15 1042.62 1206.29C1042.98 1206.44 1043.3 1206.66 1043.57 1206.93C1043.84 1207.2 1044.06 1207.52 1044.21 1207.88C1044.35 1208.23 1044.43 1208.61 1044.43 1208.99V1208.99Z" fill="white"/>
<path d="M1158.69 756.444C1159 755.724 1159.58 755.156 1160.31 754.867C1161.04 754.577 1161.85 754.588 1162.57 754.898C1163.29 755.209 1163.86 755.792 1164.15 756.52C1164.44 757.249 1164.43 758.062 1164.12 758.782C1163.81 759.511 1163.22 760.087 1162.48 760.384C1161.75 760.681 1160.93 760.676 1160.19 760.369C1159.48 760.041 1158.92 759.447 1158.64 758.713C1158.36 757.979 1158.38 757.165 1158.69 756.444V756.444Z" fill="white"/>
<path d="M1229.27 444.637C1229.42 444.279 1229.63 443.954 1229.91 443.68C1230.18 443.406 1230.5 443.189 1230.86 443.041C1231.22 442.894 1231.6 442.818 1231.99 442.82C1232.37 442.821 1232.76 442.899 1233.11 443.05C1233.83 443.379 1234.39 443.969 1234.68 444.698C1234.98 445.427 1234.98 446.242 1234.7 446.976C1234.37 447.689 1233.78 448.246 1233.04 448.527C1232.31 448.808 1231.49 448.791 1230.77 448.479C1230.42 448.334 1230.09 448.118 1229.82 447.843C1229.55 447.568 1229.34 447.241 1229.19 446.881C1229.05 446.522 1228.99 446.137 1229 445.751C1229.01 445.365 1229.11 444.986 1229.27 444.637V444.637Z" fill="white"/>
<path d="M1063.97 933.771C1064.04 934.202 1064.02 934.644 1063.91 935.066C1063.79 935.487 1063.58 935.878 1063.3 936.212C1063.02 936.546 1062.67 936.814 1062.27 936.998C1061.87 937.182 1061.44 937.278 1061.01 937.278C1060.57 937.278 1060.14 937.182 1059.74 936.998C1059.34 936.814 1058.99 936.546 1058.71 936.212C1058.43 935.878 1058.22 935.487 1058.11 935.066C1057.99 934.644 1057.97 934.202 1058.04 933.771C1058.16 933.07 1058.52 932.434 1059.06 931.975C1059.61 931.516 1060.29 931.264 1061.01 931.264C1061.72 931.264 1062.4 931.516 1062.95 931.975C1063.49 932.434 1063.85 933.07 1063.97 933.771V933.771Z" fill="white"/>
<path d="M1158.61 1064.32C1158.61 1064.72 1158.53 1065.1 1158.38 1065.46C1158.23 1065.82 1158 1066.15 1157.72 1066.42C1157.44 1066.69 1157.11 1066.91 1156.75 1067.05C1156.38 1067.19 1155.99 1067.26 1155.6 1067.25C1154.83 1067.25 1154.08 1066.94 1153.53 1066.39C1152.99 1065.84 1152.68 1065.1 1152.68 1064.32C1152.67 1063.93 1152.74 1063.54 1152.88 1063.17C1153.03 1062.81 1153.25 1062.47 1153.54 1062.2C1153.82 1061.92 1154.16 1061.71 1154.53 1061.57C1154.9 1061.44 1155.29 1061.38 1155.68 1061.4C1156.46 1061.4 1157.2 1061.71 1157.75 1062.26C1158.3 1062.81 1158.61 1063.55 1158.61 1064.32Z" fill="white"/>
<path d="M1000.57 798.708C1001.24 797.197 1002.33 795.917 1003.72 795.028C1005.11 794.138 1006.73 793.681 1008.38 793.712C1010.03 793.743 1011.64 794.263 1012.99 795.204C1014.34 796.145 1015.39 797.467 1016 799.002C1016.6 800.537 1016.74 802.216 1016.39 803.829C1016.04 805.441 1015.22 806.914 1014.04 808.062C1012.85 809.21 1011.35 809.981 1009.73 810.279C1008.11 810.576 1006.43 810.387 1004.92 809.734C1003.91 809.298 1002.99 808.666 1002.22 807.875C1001.46 807.084 1000.86 806.149 1000.45 805.125C1000.05 804.1 999.852 803.005 999.873 801.904C999.894 800.803 1000.13 799.717 1000.57 798.708V798.708Z" fill="white"/>
</svg>
